<?xml version="1.0" standalone="no"?>
<!DOCTYPE svg PUBLIC "-//W3C//DTD SVG 1.1//EN" "http://www.w3.org/Graphics/SVG/1.1/DTD/svg11.dtd" >
<svg>
<metadata>
Created by FontForge 20090914 at Thu May 26 08:44:11 2011
 By www-data
Digitized data copyright &#194;&#169; 2000 The Monotype Corporation. All rights reserved. Calvert &#226;&#132;&#162; is a trademark of The Monotype Corporation registered in certain countries
</metadata>
<defs>
<font id="CalvertMT" horiz-adv-x="1280" >
  <font-face 
    font-family="Calvert MT"
    font-weight="400"
    font-stretch="normal"
    units-per-em="2048"
    panose-1="0 0 0 0 0 0 0 0 0 0"
    ascent="1638"
    descent="-410"
    x-height="1100"
    cap-height="1444"
    bbox="-393 -512 2290 1905"
    underline-thickness="102"
    underline-position="-103"
    unicode-range="U+0020-U+F006"
  />
<missing-glyph horiz-adv-x="1024" 
d="M51 0v1536h922v-1536h-922zM179 128h666v1280h-666v-1280z" />
    <glyph glyph-name=".notdef" horiz-adv-x="1024" 
d="M51 0v1536h922v-1536h-922zM179 128h666v1280h-666v-1280z" />
    <glyph glyph-name=".null" horiz-adv-x="0" 
 />
    <glyph glyph-name="nonmarkingreturn" horiz-adv-x="569" 
 />
    <glyph glyph-name="space" unicode=" " horiz-adv-x="569" 
 />
    <glyph glyph-name="exclam" unicode="!" horiz-adv-x="555" 
d="M383 1526l-25 -1143h-161l-33 1143h219zM395 0h-233v233h233v-233z" />
    <glyph glyph-name="quotedbl" unicode="&#x22;" horiz-adv-x="938" 
d="M764 1294l-47 -243h-113l-45 243v236h205v-236zM381 1294l-47 -243h-113l-45 243v236h205v-236z" />
    <glyph glyph-name="numbersign" unicode="#" horiz-adv-x="1368" 
d="M1284 344h-311l-82 -387h-166l84 387h-383l-80 -387h-166l82 387h-180v164h215l68 328h-283v165h315l84 392h166l-86 -392h379l84 392h164l-84 -392h180v-165h-211l-67 -328h278v-164zM909 836h-381l-67 -326h381z" />
    <glyph glyph-name="dollar" unicode="$" horiz-adv-x="1217" 
d="M1108 389q0 -86 -36 -162.5t-100 -132.5t-149 -86q-67 -21 -106 -24v-158h-172v156q-159 18 -252 91t-132 168.5t-52 200.5h219q19 -129 68 -185.5t149 -68.5v447q-121 41 -176 68t-103 69q-59 53 -86.5 116.5t-27.5 143.5q0 67 25.5 139t77.5 132.5t125.5 97.5t164.5 41
v104h172v-104q119 -24 195.5 -82t112.5 -124.5t47.5 -124t14.5 -110.5h-215q-13 101 -48.5 154t-106.5 78v-428q108 -39 173 -75t105 -79q113 -115 113 -262zM545 870v379q-39 0 -82 -20.5t-73 -62t-30 -97.5q0 -48 17 -82t56 -60.5t112 -56.5zM883 371q0 71 -36.5 114
t-129.5 84v-376q166 40 166 178z" />
    <glyph glyph-name="percent" unicode="%" horiz-adv-x="1942" 
d="M1786 332q0 -120 -40.5 -209t-114.5 -137.5t-175 -48.5q-99 0 -174 49t-115.5 138.5t-40.5 207.5q0 121 40 210.5t115 138t175 48.5t174.5 -49.5t115 -138.5t40.5 -209zM1626 336q0 125 -44.5 194.5t-127.5 69.5q-82 0 -125 -68t-43 -196t45 -199t125 -71
q83 0 126.5 70.5t43.5 199.5zM1452 1544l-825 -1607h-135l825 1607h135zM819 1149q0 -121 -40.5 -210t-116 -137t-175.5 -48q-102 0 -176 47.5t-113.5 136.5t-39.5 211q0 116 41 206t116 139.5t172 49.5q100 0 175 -48t116 -137.5t41 -209.5zM659 1155q0 126 -44 193
t-126 67q-172 0 -172 -266q0 -130 44 -198t128 -68q83 0 126.5 70t43.5 202z" />
    <glyph glyph-name="ampersand" unicode="&#x26;" horiz-adv-x="1386" 
d="M1337 6q-111 -31 -176 -31q-45 0 -71.5 8.5t-56 36.5t-77.5 86q-90 -65 -165.5 -98t-194.5 -33q-135 0 -247.5 60t-176 165t-63.5 234q0 81 21.5 141.5t58.5 105.5t79.5 77t104.5 73q-84 101 -115 165.5t-31 136.5q0 94 48.5 172.5t131.5 123t183 44.5q146 0 245 -96.5
t99 -239.5q0 -55 -17 -105t-52.5 -96.5t-84.5 -83.5q-45 -34 -118 -72l294 -366q33 58 45 121.5t13 169.5h305v-185h-135q-16 -103 -34.5 -156t-57.5 -114q40 -51 56.5 -63.5t53.5 -12.5q31 0 107 14zM735 1149q0 41 -21 77t-56.5 56.5t-79.5 20.5q-64 0 -106 -43.5
t-42 -110.5q0 -48 24 -95.5t85 -121.5q120 67 158 109.5t38 107.5zM831 262l-339 422q-64 -46 -99 -84t-51 -79.5t-16 -90.5q0 -67 36.5 -126t99.5 -93.5t134 -34.5q62 0 109.5 17.5t125.5 68.5z" />
    <glyph glyph-name="quotesingle" unicode="'" horiz-adv-x="555" 
d="M381 1294l-47 -243h-113l-45 243v236h205v-236z" />
    <glyph glyph-name="parenleft" unicode="(" horiz-adv-x="748" 
d="M625 -377h-154q-103 144 -135 194.5t-74 129.5q-59 121 -114.5 287.5t-55.5 347.5q0 207 76 422q40 114 89.5 210t98 169t115.5 163h154q-88 -146 -142.5 -246t-97 -207t-67.5 -234t-25 -277q0 -142 29 -274t77 -249.5t93.5 -203t132.5 -232.5z" />
    <glyph glyph-name="parenright" unicode=")" horiz-adv-x="748" 
d="M655 582q0 -181 -59 -357.5t-111 -277.5q-39 -76 -79 -137.5t-130 -186.5h-153q93 155 163.5 292.5t119.5 308.5t49 358q0 150 -25 277t-68.5 236t-96.5 207t-142 244h153q55 -72 110 -154.5t104.5 -178t89.5 -209.5q75 -212 75 -422z" />
    <glyph glyph-name="asterisk" unicode="*" horiz-adv-x="1024" 
d="M952 1044l-342 21l189 -283l-135 -77l-152 301l-147 -301l-138 77l189 283l-344 -21v156l340 -16l-185 280l135 78l150 -301l150 299l135 -76l-185 -282l340 18v-156z" />
    <glyph glyph-name="plus" unicode="+" horiz-adv-x="1366" 
d="M1235 580h-461v-457h-184v457h-459v184h459v461h184v-461h461v-184z" />
    <glyph glyph-name="comma" unicode="," horiz-adv-x="555" 
d="M395 -25q0 -49 -16.5 -97.5t-66.5 -84t-142 -35.5h-8v86q79 11 96.5 43t17.5 113h-114v233h233v-258z" />
    <glyph glyph-name="hyphen" unicode="-" horiz-adv-x="725" 
d="M606 487h-489v181h489v-181z" />
    <glyph glyph-name="period" unicode="." horiz-adv-x="555" 
d="M393 0h-233v233h233v-233z" />
    <glyph glyph-name="slash" unicode="/" horiz-adv-x="938" 
d="M856 1528l-600 -1907h-172l600 1907h172z" />
    <glyph glyph-name="zero" unicode="0" horiz-adv-x="1217" 
d="M1145 721q0 -170 -37 -308t-107.5 -236t-168.5 -150t-220 -52q-123 0 -222 53t-169.5 151t-108.5 238t-38 312q0 171 37 308.5t106.5 235t168 149t218.5 51.5q124 0 224 -51t171 -149t108.5 -238t37.5 -314zM909 721q0 196 -30 307t-101 180q-66 66 -168 66
q-95 0 -163 -60.5t-103 -180t-35 -288.5q0 -192 29 -307.5t94 -185.5q36 -38 82.5 -58t97.5 -20q80 0 147.5 50.5t100.5 133.5q17 42 27.5 93t16 123t5.5 147z" />
    <glyph glyph-name="one" unicode="1" horiz-adv-x="1217" 
d="M899 0h-561v188h168v1018l-211 -182v236l227 198h209v-1270h168v-188z" />
    <glyph glyph-name="two" unicode="2" horiz-adv-x="1217" 
d="M1085 0h-956v205l528 528q74 74 111 117.5t58.5 92t21.5 106.5q0 61 -31 112t-84.5 81t-116.5 30q-64 0 -117.5 -25t-90.5 -72.5t-52 -111.5q-6 -29 -8 -86h-233q4 43 11 88t18 79t27 65.5t38 64.5q66 94 172.5 146.5t234.5 52.5q100 0 184 -31t149 -87t99.5 -131
t34.5 -163q0 -191 -176 -361l-534 -512h512v170h200v-358z" />
    <glyph glyph-name="three" unicode="3" horiz-adv-x="1217" 
d="M1120 479q0 -140 -67 -255t-183 -182t-256 -67q-115 0 -213 39.5t-169 114t-113 182.5q-21 55 -41 154h235q11 -85 31.5 -131.5t65.5 -87.5q77 -74 186 -74q83 0 149 38.5t103 108.5t37 160q0 113 -68.5 187.5t-169.5 74.5q-45 0 -137 -32l-117 129l441 419h-498v-174
h-203v363h959v-203l-363 -348q105 -12 167.5 -38.5t115.5 -84.5q108 -119 108 -293z" />
    <glyph glyph-name="four" unicode="4" horiz-adv-x="1217" 
d="M1155 424h-225v-236h147v-188h-512v188h142v236h-646v203l668 831h281l-703 -856h400v287l225 256v-543h223v-178z" />
    <glyph glyph-name="five" unicode="5" horiz-adv-x="1217" 
d="M1118 500q0 -114 -37.5 -209.5t-108 -166.5t-166 -110t-206.5 -39q-144 0 -267 71.5t-188 195.5q-13 25 -26.5 62.5t-24.5 80.5h242q27 -76 63 -119q87 -92 211 -92q61 0 113 22.5t88.5 65.5t55 102t18.5 132q0 141 -77 229t-200 88q-89 0 -146.5 -38t-113.5 -134h-225
l53 805h895v-336h-201v147h-485l-25 -368q81 64 146.5 89.5t150.5 25.5q95 0 180.5 -39t147 -106.5t97.5 -161.5t36 -197z" />
    <glyph glyph-name="six" unicode="6" horiz-adv-x="1217" 
d="M1130 500q0 -147 -62.5 -267.5t-172.5 -189t-244 -68.5q-122 0 -223.5 50t-175 147t-111 229.5t-37.5 292.5q0 183 38.5 329.5t112 246t179 151.5t240.5 52q87 0 165.5 -28t137.5 -78t96 -122q32 -58 45 -131h-237q-41 85 -90.5 121.5t-124.5 36.5q-90 0 -160 -47.5
t-111 -141t-41 -229.5v-39q72 75 147 121.5t187 46.5q93 0 175.5 -37.5t140.5 -101t92 -153.5t34 -191zM897 475q0 152 -69.5 235t-194.5 83q-120 0 -188 -82.5t-68 -227.5q0 -90 33 -160.5t93 -109.5t136 -39q78 0 136 37.5t90 106t32 157.5z" />
    <glyph glyph-name="seven" unicode="7" horiz-adv-x="1217" 
d="M1120 1239l-477 -1051h148v-188h-558v188h148l510 1069h-594v-237h-201v426h1024v-207z" />
    <glyph glyph-name="eight" unicode="8" horiz-adv-x="1217" 
d="M1122 420q0 -130 -65 -232t-181.5 -157.5t-265.5 -55.5q-152 0 -269 56t-182 159.5t-65 235.5q0 55 17 109.5t49 99.5t78 80q19 15 94 55q-85 45 -145 111.5t-60 197.5q0 88 34 161t98 125.5t154 80t195 27.5t193.5 -29t150.5 -81.5t96.5 -127.5t34.5 -162
q0 -79 -34.5 -147t-94.5 -113q-11 -8 -69 -43q101 -52 169 -128.5t68 -221.5zM856 1059q0 101 -67.5 161t-182.5 60q-110 0 -181 -59t-71 -154q0 -60 28.5 -112.5t85 -83.5t136.5 -31q114 1 183 61t69 158zM889 412q0 116 -76.5 184t-204.5 68q-125 0 -202.5 -68.5
t-77.5 -179.5q0 -106 77 -173t197 -67q128 0 207.5 65t79.5 171z" />
    <glyph glyph-name="nine" unicode="9" horiz-adv-x="1217" 
d="M1112 741q0 -179 -39 -322t-114 -241.5t-182 -150.5t-240 -52q-105 0 -198.5 38t-159 119.5t-83.5 199.5h236q44 -86 93 -121t126 -35q93 0 165.5 53.5t110.5 149.5q23 53 30 109t7 145q-71 -77 -145.5 -123.5t-192.5 -46.5q-123 0 -224 64t-158.5 175.5t-57.5 245.5
q0 149 65 269.5t179 188t256 67.5q69 0 154 -29.5t171.5 -108t143.5 -226t57 -368.5zM842 952q0 144 -70.5 231t-189.5 87q-124 0 -193.5 -82.5t-69.5 -226.5q0 -139 70.5 -223.5t188.5 -84.5q122 0 193 80t71 219z" />
    <glyph glyph-name="colon" unicode=":" horiz-adv-x="555" 
d="M393 864h-233v234h233v-234zM393 0h-233v233h233v-233z" />
    <glyph glyph-name="semicolon" unicode=";" horiz-adv-x="555" 
d="M393 864h-233v234h233v-234zM393 -20q0 -107 -55 -159.5t-178 -62.5v86q70 9 91.5 37t24.5 119h-116v238h233v-258z" />
    <glyph glyph-name="less" unicode="&#x3c;" horiz-adv-x="1366" 
d="M1235 127l-1104 461v168l1104 461v-201l-852 -344l852 -344v-201z" />
    <glyph glyph-name="equal" unicode="=" horiz-adv-x="1366" 
d="M1235 819h-1104v185h1104v-185zM1235 344h-1104v184h1104v-184z" />
    <glyph glyph-name="greater" unicode="&#x3e;" horiz-adv-x="1366" 
d="M1235 588l-1104 -461v199l852 346l-852 344v201l1104 -461v-168z" />
    <glyph glyph-name="question" unicode="?" horiz-adv-x="1110" 
d="M1006 1094q0 -113 -50 -197t-147 -135q-46 -25 -147 -53v-322h-199v436q106 9 161 29.5t95 65.5q72 72 72 194q0 74 -29 129.5t-82 85t-119 29.5q-139 0 -189 -84.5t-65 -200.5h-205q8 105 25 164.5t59 122.5q61 91 156.5 137.5t216.5 46.5q130 0 232.5 -57t158.5 -159
t56 -232zM678 0h-229v233h229v-233z" />
    <glyph glyph-name="at" unicode="@" horiz-adv-x="2079" 
d="M2009 18q-72 -138 -217 -247q-137 -104 -296 -152.5t-368 -48.5q-235 0 -423 62t-319 178.5t-200 284.5t-69 374q0 163 52 339.5t169 333.5t309 254t459 97q214 0 378 -69t268 -181.5t156 -248t52 -265.5q0 -302 -197 -526q-56 -63 -117.5 -108.5t-134 -72t-145.5 -26.5
q-104 0 -145.5 35.5t-53.5 132.5q-150 -166 -303 -166q-104 0 -187.5 58t-131 161.5t-47.5 233.5q0 107 40 219t112 206t167.5 150.5t200.5 56.5q94 0 167 -44.5t134 -137.5l33 154h180l-160 -744q-14 -64 -14 -84q0 -28 21 -46.5t51 -18.5q34 0 87.5 30t102.5 74
q62 59 104 130.5t65 154t23 166.5q0 177 -93 322t-257.5 227t-365.5 82q-177 0 -330.5 -64t-265.5 -180t-174 -275t-62 -344q0 -241 102 -413.5t297 -263.5t467 -91q243 0 418 80q93 45 181 109q29 24 49 47t51 67zM1262 645q0 134 -64 212.5t-170 78.5q-65 0 -127 -41
t-111.5 -111.5t-78.5 -164t-29 -185.5q0 -84 27.5 -150t79 -102.5t114.5 -36.5q60 0 129.5 45t122.5 119q51 69 79 158.5t28 177.5z" />
    <glyph glyph-name="A" unicode="A" horiz-adv-x="1493" 
d="M1421 0h-288l-117 356h-541l-117 -356h-288v188h120l420 1256h269l419 -1256h123v-188zM954 541l-211 653l-208 -653h419z" />
    <glyph glyph-name="B" unicode="B" horiz-adv-x="1386" 
d="M1278 406q0 -119 -57.5 -211.5t-165 -143.5t-246.5 -51h-752v188h162v1067h-160v189h684q117 0 206 -24.5t152 -72.5t95.5 -116t32.5 -156q0 -102 -41 -165.5t-90 -91t-129 -56.5q171 -46 240 -139.5t69 -216.5zM991 1049q0 98 -72 152t-200 54h-270v-419h311
q108 0 169.5 56t61.5 157zM1026 420q0 108 -76.5 169.5t-214.5 61.5h-286v-463h278q96 0 163 27t101.5 79.5t34.5 125.5z" />
    <glyph glyph-name="C" unicode="C" horiz-adv-x="1430" 
d="M1364 485q-50 -190 -145 -301q-92 -108 -208.5 -160.5t-265.5 -52.5q-146 0 -267.5 53t-207.5 149.5t-132 230.5t-46 298q0 228 79 404t223.5 271.5t332.5 95.5q180 0 315 -109q56 -46 113 -113v193h182v-500h-182q-16 64 -32.5 101t-49.5 77q-56 72 -137.5 111
t-177.5 39q-122 0 -215 -71.5t-144 -202t-51 -300.5q0 -161 50 -278.5t144 -180.5t220 -63q98 0 181.5 49.5t135.5 139.5q26 42 54 120h231z" />
    <glyph glyph-name="D" unicode="D" horiz-adv-x="1493" 
d="M1389 721q0 -166 -48.5 -301t-141 -228.5t-224 -142.5t-295.5 -49h-604v188h141v1067h-145v189h665q102 0 211 -35.5t211.5 -119.5t166 -225t63.5 -343zM1135 731q0 143 -31 240t-98 164q-122 120 -316 120h-246v-1067h203q162 0 262.5 50t149.5 130.5t62.5 168.5
t13.5 194z" />
    <glyph glyph-name="E" unicode="E" 
d="M1178 0h-1100v188h141v1067h-141v189h1071v-436h-197v247h-501v-417h495v-187h-495v-463h530v273h197v-461z" />
    <glyph glyph-name="F" unicode="F" horiz-adv-x="1237" 
d="M1151 1012h-199v243h-503v-415h495v-185h-495v-467h196v-188h-567v188h143v1067h-141v189h1071v-432z" />
    <glyph glyph-name="G" unicode="G" horiz-adv-x="1516" 
d="M1358 0h-184v231q-77 -111 -175.5 -185.5t-279.5 -74.5q-119 0 -218 42.5t-186 129.5q-108 111 -161.5 260.5t-53.5 344.5q0 158 45.5 290t129 230t199.5 151.5t251 53.5q85 0 157.5 -22.5t145.5 -78.5q45 -33 115 -108v180h182v-455h-182q-34 93 -78 141
q-58 67 -138.5 104.5t-162.5 37.5q-118 0 -212 -72.5t-147 -202.5t-53 -292q0 -119 28 -218t81 -169t127 -106t164 -36q108 0 196.5 55t141.5 156q34 65 51 172h-299v189h516v-748z" />
    <glyph glyph-name="H" unicode="H" horiz-adv-x="1473" 
d="M1405 0h-522v188h147v461h-586v-461h144v-188h-522v188h145v1067h-145v189h522v-189h-144v-419h586v419h-145v189h520v-189h-141v-1067h141v-188z" />
    <glyph glyph-name="I" unicode="I" horiz-adv-x="662" 
d="M592 1255h-146v-1067h142v-188h-518v188h145v1067h-141v189h518v-189z" />
    <glyph glyph-name="J" unicode="J" horiz-adv-x="788" 
d="M725 1255h-143v-981q0 -99 -30 -158.5t-76.5 -85t-93 -32t-108.5 -6.5q-70 0 -170 10l-41 4v184l91 -4q14 -1 40 -1q93 0 125.5 30.5t32.5 108.5v931h-143v189h516v-189z" />
    <glyph glyph-name="K" unicode="K" horiz-adv-x="1386" 
d="M1321 0h-258l-440 723l-177 -197v-338h146v-188h-516v188h141v1067h-143v189h516v-189h-144v-444l566 633h231v-189h-141l-326 -362l426 -705h119v-188z" />
    <glyph glyph-name="L" unicode="L" horiz-adv-x="1194" 
d="M1112 0h-1046v188h145v1067h-143v189h516v-189h-144v-1067h473v271h199v-459z" />
    <glyph glyph-name="M" unicode="M" horiz-adv-x="1792" 
d="M1722 0h-356v1294l-389 -1294h-154l-393 1290v-1290h-360v188h149v1067h-149v189h499l328 -1092l332 1092h493v-189h-145v-1067h145v-188z" />
    <glyph glyph-name="N" unicode="N" horiz-adv-x="1642" 
d="M1579 1255h-141v-1255h-330l-676 1206v-1018h143v-188h-495v188h141v1067h-141v189h465l682 -1217v1028h-144v189h496v-189z" />
    <glyph glyph-name="O" unicode="O" horiz-adv-x="1516" 
d="M1425 719q0 -114 -23 -218t-70 -192.5t-111 -154.5q-63 -65 -131.5 -104.5t-152 -59t-187.5 -19.5q-146 0 -267.5 53.5t-209.5 153.5t-134.5 238t-46.5 299q0 165 43.5 304t129 241t209.5 157.5t278 55.5q211 0 364 -97.5t231 -268.5t78 -388zM1165 713q0 127 -28.5 232
t-81 176.5t-127.5 110t-170 38.5q-94 0 -170 -38t-128.5 -109t-80 -176t-27.5 -232q0 -168 49.5 -289t143.5 -186.5t221 -65.5q92 0 166 37t125.5 107t79.5 169t28 226z" />
    <glyph glyph-name="P" unicode="P" horiz-adv-x="1260" 
d="M1186 995q0 -135 -61.5 -234.5t-177.5 -152.5t-271 -53h-227v-367h172v-188h-545v188h143v1067h-143v189h610q113 0 205 -30.5t159 -90.5t101.5 -143t34.5 -185zM934 999q0 79 -41 136.5t-119.5 88.5t-183.5 31h-141v-516h163q103 0 175 31t109.5 89t37.5 140z" />
    <glyph glyph-name="Q" unicode="Q" horiz-adv-x="1516" 
d="M1425 709q0 -172 -55 -319t-174 -259q-109 -104 -240 -135q57 -47 104 -64.5t120 -17.5q75 0 151 14l31 6l14 -192q-115 -16 -178 -16q-186 0 -356 94q-54 31 -95.5 60.5t-125.5 103.5q-111 23 -184 61t-138 105q-66 68 -112.5 156.5t-70.5 192.5t-24 216q0 165 43.5 304
t130 241t211.5 157.5t279 55.5q210 0 362 -98t229.5 -272t77.5 -394zM1165 715q0 170 -49 295.5t-139 192.5t-213 67v2q-96 0 -172 -38t-129.5 -110t-82 -178.5t-28.5 -234.5q0 -160 49.5 -282.5t141 -188.5t211.5 -66q97 0 173.5 38t129.5 108t80.5 169.5t27.5 225.5z" />
    <glyph glyph-name="R" unicode="R" horiz-adv-x="1430" 
d="M1364 0h-371v207q0 306 -86 391q-47 47 -166 47h-290v-457h143v-188h-514v188h143v1067h-143v189h717q91 0 171.5 -28t135.5 -77.5t86 -120t31 -153.5q0 -93 -43 -167t-121 -118q-24 -13 -111 -41q81 -23 126 -46.5t79.5 -71.5t51 -131.5t16.5 -221.5v-80h145v-188z
M967 1047q0 59 -24 107.5t-68.5 74.5t-104.5 26h-319v-428h266q122 0 186 56t64 164z" />
    <glyph glyph-name="S" unicode="S" horiz-adv-x="1260" 
d="M1180 426q0 -128 -60.5 -232.5t-168.5 -163.5t-240 -59q-106 0 -186 33t-138 83.5t-127 125.5v-213h-184v461h182q47 -80 91 -136t124 -101.5t191 -45.5q88 0 153 29t100 82t35 125q0 90 -54 138.5t-122.5 65t-175.5 27.5q-174 17 -254 47q-108 43 -153 92
q-111 117 -111 277q0 84 34.5 161t99 133.5t149.5 87t184 30.5q123 0 208 -47.5t169 -125.5v144h182v-414h-180q-37 82 -80 127q-118 121 -275 121q-76 0 -141 -26.5t-102 -73t-37 -103.5q0 -46 26.5 -83t73.5 -60q46 -20 97 -31t135 -20q159 -18 264 -54
q155 -52 223 -168.5t68 -232.5z" />
    <glyph glyph-name="T" unicode="T" horiz-adv-x="1237" 
d="M1159 897h-182v358h-244v-1067h164v-188h-559v188h166v1067h-244v-352h-182v541h1081v-547z" />
    <glyph glyph-name="U" unicode="U" horiz-adv-x="1556" 
d="M1487 1255h-144v-729q0 -127 -33.5 -220.5t-109.5 -172.5q-82 -82 -183.5 -122t-232.5 -40q-169 0 -299 67.5t-202 191.5t-72 286v739h-141v189h514v-189h-146v-714q0 -176 86.5 -270.5t249.5 -94.5q82 0 146 22.5t107.5 66.5t66 111t22.5 154v725h-143v189h514v-189z
" />
    <glyph glyph-name="V" unicode="V" horiz-adv-x="1493" 
d="M1423 1255h-118l-422 -1255h-269l-421 1255h-123v189h475v-189h-121l324 -1001l323 1001h-121v189h473v-189z" />
    <glyph glyph-name="W" unicode="W" horiz-adv-x="2068" 
d="M2003 1255h-119l-330 -1255h-268l-250 1229l-254 -1229h-266l-332 1255h-121v189h474v-189h-127l237 -1030l250 1219h279l247 -1219l238 1030h-127v189h469v-189z" />
    <glyph glyph-name="X" unicode="X" horiz-adv-x="1323" 
d="M1251 0h-276l-313 543l-318 -543h-274v188h116l363 566l-320 501h-116v189h249l295 -512l301 512h252v-189h-116l-320 -501l359 -566h118v-188z" />
    <glyph glyph-name="Y" unicode="Y" 
d="M1210 1255h-125l-329 -649v-418h143v-188h-516v188h143v414l-331 653h-127v189h284l289 -604l287 604h282v-189z" />
    <glyph glyph-name="Z" unicode="Z" horiz-adv-x="1194" 
d="M1118 0h-1044v197l762 1058h-502v-213h-197v402h967v-187l-768 -1069h586v213h196v-401z" />
    <glyph glyph-name="bracketleft" unicode="[" horiz-adv-x="725" 
d="M625 -377h-385v1923h385v-164h-213v-1595h213v-164z" />
    <glyph glyph-name="backslash" unicode="\" horiz-adv-x="938" 
d="M856 -379h-172l-600 1907h172z" />
    <glyph glyph-name="bracketright" unicode="]" horiz-adv-x="725" 
d="M485 -377h-385v164h213v1595h-213v164h385v-1923z" />
    <glyph glyph-name="asciicircum" unicode="^" horiz-adv-x="961" 
d="M907 690h-182l-246 598l-239 -598h-187l355 801h145z" />
    <glyph glyph-name="underscore" unicode="_" horiz-adv-x="1024" 
d="M1024 -256h-1024v102h1024v-102z" />
    <glyph glyph-name="grave" unicode="`" horiz-adv-x="682" 
d="M481 1214h-178l-274 299h313z" />
    <glyph glyph-name="a" unicode="a" horiz-adv-x="1194" 
d="M1151 0h-344v147q-97 -87 -174 -129.5t-195 -42.5q-154 0 -255 94t-101 236q0 125 82 213q41 43 102 72t157.5 49.5t238.5 36.5l143 16v70q0 97 -59.5 146.5t-172.5 49.5q-102 0 -154 -42t-71 -140h-227q12 85 35 136t71 98q128 114 361 114q134 0 231.5 -43t149 -125.5
t51.5 -195.5v-586h131v-174zM805 410v147l-96 -14q-150 -22 -224 -47.5t-116 -67.5q-47 -47 -47 -104q0 -76 56.5 -131.5t133.5 -55.5q72 0 141 39t110.5 103t41.5 131z" />
    <glyph glyph-name="b" unicode="b" 
d="M1198 553q0 -169 -56 -301.5t-158 -204.5t-232 -72q-141 0 -244 84q-42 33 -94 101v-160h-338v174h121v1178h-121v174h338v-584q73 87 145 134.5t203 47.5q94 0 173.5 -41.5t138.5 -118t91.5 -181t32.5 -230.5zM967 551q0 94 -18.5 167.5t-52 123t-83 76t-111.5 26.5
q-131 0 -210.5 -108.5t-79.5 -286.5q0 -182 79.5 -287.5t215.5 -105.5q78 0 137.5 48t91 137t31.5 210z" />
    <glyph glyph-name="c" unicode="c" horiz-adv-x="1153" 
d="M1090 387q-17 -79 -44 -136.5t-65 -105.5q-68 -83 -162 -126.5t-209 -43.5q-151 0 -270 75t-185.5 210t-66.5 303q0 159 66 288t183.5 201t262.5 72q88 0 155.5 -33t137.5 -112v121h166v-393h-176q-32 120 -99 178q-65 59 -172 59q-88 0 -155.5 -47.5t-103.5 -137
t-36 -204.5q0 -178 79.5 -286.5t209.5 -108.5q71 0 129.5 34.5t91.5 96.5q19 31 37 96h226z" />
    <glyph glyph-name="d" unicode="d" 
d="M1206 0h-340v160q-42 -59 -72 -86.5t-81 -57.5q-79 -41 -191 -41q-192 0 -314 162t-122 414q0 127 31.5 231t90.5 181.5t140 119t176 41.5q74 0 134 -21.5t101.5 -51t68.5 -61.5t38 -54v416h-125v174h340v-1352h125v-174zM868 545q0 220 -96 317q-35 37 -87 59.5
t-101 22.5q-125 0 -197 -103.5t-72 -287.5q0 -125 31.5 -214t91 -136t142.5 -47q84 0 150.5 48.5t102 136.5t35.5 204z" />
    <glyph glyph-name="e" unicode="e" horiz-adv-x="1174" 
d="M1092 506h-791q4 -115 49 -194t115.5 -115.5t146.5 -36.5q86 0 141 43t85 135h235q-52 -137 -160.5 -250t-312.5 -113q-115 0 -211.5 42.5t-166 121.5t-107 185.5t-37.5 236.5q0 160 68.5 289.5t189.5 201.5t270 72q110 0 219.5 -51.5t188 -189.5t78.5 -377zM850 659
q-7 138 -69.5 209.5t-178.5 71.5q-79 0 -136 -35.5t-90.5 -85.5t-50 -95.5t-16.5 -64.5h541z" />
    <glyph glyph-name="f" unicode="f" horiz-adv-x="641" 
d="M641 1366q-4 0 -33 1.5l-59 3t-33 1.5q-57 0 -78.5 -20t-21.5 -74v-178h198v-174h-198v-752h137v-174h-479v174h127v752h-172v174h172v237q0 107 67 156t215 49q3 0 129 -8l29 -2v-166z" />
    <glyph glyph-name="g" unicode="g" 
d="M1210 926h-131v-924q0 -88 -32 -157.5t-96 -119.5t-150 -76t-197 -26q-107 0 -193 22t-149 64.5t-98 100.5q-40 63 -58 159h232q38 -100 89.5 -137t152.5 -37q132 0 208 61t76 171v223q-58 -77 -133.5 -127.5t-204.5 -50.5q-124 0 -223.5 66t-156 183.5t-56.5 266.5
q0 157 56 279.5t157.5 189.5t233.5 67q130 0 231 -75q37 -27 96 -97v148h346v-174zM866 594q0 73 -22 138.5t-60.5 112.5t-89 73t-112.5 26q-78 0 -136 -43t-89 -123t-31 -186q0 -100 30.5 -177.5t87.5 -119t129 -41.5q82 0 149.5 44t105.5 122.5t38 173.5z" />
    <glyph glyph-name="h" unicode="h" 
d="M1229 0h-342v748q0 92 -49.5 147t-130.5 55q-73 0 -140.5 -48.5t-109 -119.5t-41.5 -129v-479h131v-174h-477v174h131v1178h-131v174h346v-596q78 87 157.5 140.5t200.5 53.5q97 0 171 -41t115.5 -114.5t41.5 -167.5v-627h127v-174z" />
    <glyph glyph-name="i" unicode="i" horiz-adv-x="618" 
d="M426 1268h-231v231h231v-231zM549 0h-469v174h131v754h-129v172h344v-926h123v-174z" />
    <glyph glyph-name="j" unicode="j" horiz-adv-x="662" 
d="M475 1268h-231v231h231v-231zM475 -141q0 -238 -270 -238q-25 0 -71 4t-83 6v166q55 -4 80 -4q70 0 99.5 21t29.5 67v1045h-127v174h342v-1241z" />
    <glyph glyph-name="k" unicode="k" horiz-adv-x="1217" 
d="M1159 0h-250l-325 598l-168 -152v-272h129v-174h-469v174h125v1180h-125v172h340v-850l440 424h213v-174h-121l-227 -205l326 -547h112v-174z" />
    <glyph glyph-name="l" unicode="l" horiz-adv-x="598" 
d="M545 0h-471v174h125v1178h-125v174h340v-1352h131v-174z" />
    <glyph glyph-name="m" unicode="m" horiz-adv-x="1792" 
d="M1731 0h-345v782q0 168 -124 168q-67 0 -126 -49.5t-92.5 -114.5t-33.5 -108v-504h127v-174h-342v786q0 90 -35.5 128t-91.5 38q-70 0 -127.5 -55.5t-90 -132.5t-32.5 -139v-451h135v-174h-485v174h135v752h-135v174h348v-174q67 88 139 143t186 55q100 0 162 -50
t96 -159q66 92 139 150.5t191 58.5q78 0 140.5 -37t97.5 -107.5t35 -160.5v-645h129v-174z" />
    <glyph glyph-name="n" unicode="n" 
d="M1233 0h-344v745q0 92 -48.5 148.5t-127.5 56.5q-69 0 -138 -44t-114 -119.5t-45 -155.5v-457h131v-174h-477v174h131v752h-131v174h348v-174q89 109 180 155q89 43 180 43q72 0 131.5 -23.5t102.5 -65t67.5 -99.5t24.5 -129v-633h129v-174z" />
    <glyph glyph-name="o" unicode="o" horiz-adv-x="1217" 
d="M1126 555q0 -128 -38 -235.5t-107 -184t-166.5 -118.5t-212.5 -42q-112 0 -208 43t-164 121t-105 185t-37 235q0 162 65.5 291t184.5 201.5t266 72.5q117 0 212.5 -40.5t166 -117t107 -180.5t36.5 -231zM897 547q0 189 -75.5 293t-215.5 104q-88 0 -153.5 -49
t-100.5 -139.5t-35 -212.5q0 -176 79 -281.5t210 -105.5q87 0 153.5 47.5t102 135t35.5 208.5z" />
    <glyph glyph-name="p" unicode="p" 
d="M1198 545q0 -124 -32.5 -228t-93 -182t-140.5 -119t-176 -41q-90 0 -156 28t-105 64t-83 91v-336h131v-174h-477v174h131v1104h-131v174h346v-158q69 91 148 136.5t198 45.5q95 0 177.5 -42.5t140.5 -118.5t90 -183t32 -235zM963 551q0 121 -31.5 210t-91 136t-142.5 47
q-84 0 -149.5 -48.5t-102 -135t-36.5 -197.5q0 -186 76 -296.5t204 -110.5q130 0 201.5 102.5t71.5 292.5z" />
    <glyph glyph-name="q" unicode="q" 
d="M1206 -352h-471v174h129v338q-129 -185 -332 -185q-129 0 -231 71.5t-158.5 200.5t-56.5 296q0 131 31.5 237.5t91.5 184t142 118.5t181 41q113 0 199.5 -53t132.5 -129v158h342v-174h-127v-1104h127v-174zM868 524v80q0 91 -39 170t-106 124.5t-143 45.5
q-82 0 -141.5 -47.5t-91.5 -136t-32 -211.5q0 -184 71 -286.5t198 -102.5q84 0 148 45.5t100 129.5t36 189z" />
    <glyph glyph-name="r" unicode="r" horiz-adv-x="874" 
d="M840 903q-76 17 -107 17q-111 0 -183 -59.5t-103 -138t-31 -130.5v-418h125v-174h-467v174h127v752h-123v174h338v-246q43 93 76.5 144t92.5 88.5t150 37.5q42 0 105 -14v-207z" />
    <glyph glyph-name="s" unicode="s" horiz-adv-x="1044" 
d="M963 322q0 -75 -26.5 -139t-76 -111.5t-114 -72t-142.5 -24.5q-155 0 -264 93q-37 33 -88 104v-172h-168v373h170q27 -71 63 -111q50 -56 116.5 -86.5t137.5 -30.5q84 0 144.5 50.5t60.5 119.5q0 54 -26 84.5t-98.5 51t-205.5 36.5q-115 15 -198 58t-124.5 110.5
t-41.5 153.5q0 89 45 161t125 113t180 41q99 0 168.5 -34t155.5 -123v133h168v-334h-168q-27 74 -56 104q-41 48 -100 74.5t-127 26.5q-86 0 -144.5 -43t-58.5 -107q0 -59 51.5 -88t190.5 -49q83 -10 149.5 -24t133 -47t106.5 -89q28 -37 45 -92t17 -110z" />
    <glyph glyph-name="t" unicode="t" horiz-adv-x="682" 
d="M649 -4q-43 -2 -95 -6t-77 -4q-151 0 -219 55.5t-68 177.5v707h-159v174h159v321h213v-321h246v-174h-246v-633q0 -49 17 -79t52.5 -43t96.5 -13q35 0 80 4v-166z" />
    <glyph glyph-name="u" unicode="u" 
d="M1200 0h-342v172q-57 -67 -97.5 -99t-96.5 -59q-88 -39 -168 -39q-94 0 -167.5 42t-114 118t-40.5 176v615h-125v174h340v-748q0 -95 50 -150t136 -55q72 0 137 46t105.5 116t40.5 135v482h-127v174h342v-926h127v-174z" />
    <glyph glyph-name="v" unicode="v" horiz-adv-x="1174" 
d="M1126 926h-106l-322 -926h-229l-317 926h-105v174h416v-174h-111l234 -705l231 705h-108v174h417v-174z" />
    <glyph glyph-name="w" unicode="w" horiz-adv-x="1706" 
d="M1645 926h-107l-252 -926h-231l-201 823l-197 -823h-233l-256 926h-107v174h422v-174h-123l181 -744l211 918h209l208 -918l181 744h-121v174h416v-174z" />
    <glyph glyph-name="x" unicode="x" horiz-adv-x="1087" 
d="M1022 0h-240l-235 406l-240 -406h-239v174h110l250 397l-219 355h-109v174h234l213 -365l215 365h231v-174h-108l-219 -355l247 -399h109v-172z" />
    <glyph glyph-name="y" unicode="y" horiz-adv-x="1174" 
d="M1126 926h-102l-379 -1143q-19 -59 -51 -94t-83 -50.5t-126 -15.5h-26q-49 0 -103 8l-27 4v181q99 -6 111 -6q49 0 77 9t44.5 33.5t32.5 79.5l14 52l-356 942h-109v174h424v-174h-111l248 -693l219 693h-112v174h415v-174z" />
    <glyph glyph-name="z" unicode="z" horiz-adv-x="961" 
d="M901 0h-842v168l584 758h-360v-172h-168v346h776v-166l-584 -760h426v176h168v-350z" />
    <glyph glyph-name="braceleft" unicode="{" horiz-adv-x="684" 
d="M623 -373h-56q-104 0 -153.5 18.5t-98.5 73.5q-37 45 -48.5 106t-14.5 206l-2 90q-3 132 -11.5 199.5t-32 104t-67.5 60.5q-36 21 -96 23v164q52 1 87 15.5t65 47.5q20 23 31.5 59.5t16.5 98t7 166.5l2 88q3 138 15 201.5t48 109.5q41 54 93.5 73t158.5 19h56v-157h-31
q-73 0 -109 -16t-49.5 -58t-13.5 -131v-148q0 -155 -25 -242.5t-69.5 -131t-116.5 -76.5q72 -33 116.5 -76.5t69.5 -132t25 -244.5v-145q0 -90 13.5 -132.5t49.5 -58.5t109 -16h31v-158z" />
    <glyph glyph-name="bar" unicode="|" horiz-adv-x="1159" 
d="M672 -512h-187v2048h187v-2048z" />
    <glyph glyph-name="braceright" unicode="}" horiz-adv-x="684" 
d="M641 508q-60 -2 -96 -23q-44 -24 -67.5 -60.5t-32 -104t-11.5 -199.5l-2 -90q-2 -96 -7 -152.5t-18 -92.5t-38 -67q-49 -55 -98.5 -73.5t-153.5 -18.5h-56v158h31q74 0 110 16t49 59t13 132v145q0 156 25 244.5t69.5 132t116.5 76.5q-59 30 -93 55t-61 72.5t-42 125.5
t-15 197v148q0 88 -13 130.5t-49 58.5t-110 16h-31v157h56q107 0 159 -19t93 -73q35 -44 47.5 -105t15.5 -206l2 -88q2 -105 7.5 -167.5t17 -97.5t30.5 -59q55 -60 152 -63v-164z" />
    <glyph glyph-name="asciitilde" unicode="~" horiz-adv-x="1366" 
d="M1233 842q-8 -104 -31 -165t-72 -110q-67 -67 -174 -67q-44 0 -81.5 6.5t-94 26.5t-123.5 51l-82 37q-72 33 -118.5 46t-91.5 13q-70 0 -111 -42t-57 -134h-64q6 101 26 160.5t62 101.5q77 80 182 80q61 0 147 -26t224 -87q103 -44 144 -56.5t75 -12.5q78 0 121 43.5
t55 134.5h64z" />
    <glyph glyph-name="Adieresis" unicode="&#xc4;" horiz-adv-x="1493" 
d="M1421 0h-288l-117 356h-541l-117 -356h-288v188h120l420 1256h269l419 -1256h123v-188zM954 541l-211 653l-208 -653h419zM1081 1613h-242v245h242v-245zM651 1617h-242v241h242v-241z" />
    <glyph glyph-name="Aring" unicode="&#xc5;" horiz-adv-x="1493" 
d="M1421 0h-288l-117 356h-541l-117 -356h-288v188h120l420 1256h269l419 -1256h123v-188zM954 541l-211 653l-208 -653h419zM942 1708q-2 -58 -27.5 -102t-69 -69.5t-98.5 -25.5q-83 0 -140 57t-57 140t57 140t140 57q48 0 93.5 -24.5t73.5 -70t28 -102.5zM835 1708
q0 37 -25 63.5t-63 26.5t-64 -26t-26 -64t26 -64t64 -26q37 0 62.5 26.5t25.5 63.5z" />
    <glyph glyph-name="Ccedilla" unicode="&#xc7;" horiz-adv-x="1430" 
d="M1364 485q-36 -122 -66 -183t-79 -118q-157 -181 -392 -209q77 -18 118.5 -65t41.5 -113q0 -100 -95 -158.5t-255 -58.5q-125 0 -195 17v116l83 -6t102 -4q80 0 125 25t45 69q0 40 -34.5 62t-94.5 22q-65 0 -129 -20l26 100q28 10 78 19q-127 18 -227.5 75.5
t-174.5 154.5t-111.5 221.5t-37.5 270.5q0 228 79 404t223.5 271.5t332.5 95.5q180 0 315 -109q56 -46 113 -113v193h182v-500h-182q-16 64 -32.5 101t-49.5 77q-56 72 -137.5 111t-177.5 39q-122 0 -215 -71.5t-144 -202t-51 -300.5q0 -161 50 -278.5t144 -180.5t220 -63
q98 0 181.5 49.5t135.5 139.5q26 42 54 120h231z" />
    <glyph glyph-name="Eacute" unicode="&#xc9;" 
d="M1178 0h-1100v188h141v1067h-141v189h1071v-436h-197v247h-501v-417h495v-187h-495v-463h530v273h197v-461zM924 1858l-275 -299h-178l139 299h314z" />
    <glyph glyph-name="Ntilde" unicode="&#xd1;" horiz-adv-x="1642" 
d="M1579 1255h-141v-1255h-330l-676 1206v-1018h143v-188h-495v188h141v1067h-141v189h465l682 -1217v1028h-144v189h496v-189zM1167 1825q-3 -131 -47 -190.5t-139 -59.5q-30 0 -54.5 5.5t-74.5 25.5l-35 14q-94 39 -143 39q-70 0 -70 -86h-127v22q0 119 53 179
q50 51 127 51q70 0 137 -33l29 -14q48 -24 76.5 -31.5t56.5 -7.5q37 0 56 20t26 66h129z" />
    <glyph glyph-name="Odieresis" unicode="&#xd6;" horiz-adv-x="1516" 
d="M1425 719q0 -114 -23 -218t-70 -192.5t-111 -154.5q-63 -65 -131.5 -104.5t-152 -59t-187.5 -19.5q-146 0 -267.5 53.5t-209.5 153.5t-134.5 238t-46.5 299q0 165 43.5 304t129 241t209.5 157.5t278 55.5q211 0 364 -97.5t231 -268.5t78 -388zM1165 713q0 127 -28.5 232
t-81 176.5t-127.5 110t-170 38.5q-94 0 -170 -38t-128.5 -109t-80 -176t-27.5 -232q0 -168 49.5 -289t143.5 -186.5t221 -65.5q92 0 166 37t125.5 107t79.5 169t28 226zM1094 1613h-242v245h242v-245zM664 1617h-242v241h242v-241z" />
    <glyph glyph-name="Udieresis" unicode="&#xdc;" horiz-adv-x="1556" 
d="M1487 1255h-144v-729q0 -127 -33.5 -220.5t-109.5 -172.5q-82 -82 -183.5 -122t-232.5 -40q-169 0 -299 67.5t-202 191.5t-72 286v739h-141v189h514v-189h-146v-714q0 -176 86.5 -270.5t249.5 -94.5q82 0 146 22.5t107.5 66.5t66 111t22.5 154v725h-143v189h514v-189z
M1094 1613h-242v245h242v-245zM664 1617h-242v241h242v-241z" />
    <glyph glyph-name="aacute" unicode="&#xe1;" horiz-adv-x="1194" 
d="M1151 0h-344v147q-97 -87 -174 -129.5t-195 -42.5q-154 0 -255 94t-101 236q0 125 82 213q41 43 102 72t157.5 49.5t238.5 36.5l143 16v70q0 97 -59.5 146.5t-172.5 49.5q-102 0 -154 -42t-71 -140h-227q12 85 35 136t71 98q128 114 361 114q134 0 231.5 -43t149 -125.5
t51.5 -195.5v-586h131v-174zM805 410v147l-96 -14q-150 -22 -224 -47.5t-116 -67.5q-47 -47 -47 -104q0 -76 56.5 -131.5t133.5 -55.5q72 0 141 39t110.5 103t41.5 131zM881 1513l-275 -299h-178l139 299h314z" />
    <glyph glyph-name="agrave" unicode="&#xe0;" horiz-adv-x="1194" 
d="M1151 0h-344v147q-97 -87 -174 -129.5t-195 -42.5q-154 0 -255 94t-101 236q0 125 82 213q41 43 102 72t157.5 49.5t238.5 36.5l143 16v70q0 97 -59.5 146.5t-172.5 49.5q-102 0 -154 -42t-71 -140h-227q12 85 35 136t71 98q128 114 361 114q134 0 231.5 -43t149 -125.5
t51.5 -195.5v-586h131v-174zM805 410v147l-96 -14q-150 -22 -224 -47.5t-116 -67.5q-47 -47 -47 -104q0 -76 56.5 -131.5t133.5 -55.5q72 0 141 39t110.5 103t41.5 131zM737 1214h-178l-274 299h313z" />
    <glyph glyph-name="acircumflex" unicode="&#xe2;" horiz-adv-x="1194" 
d="M1151 0h-344v147q-97 -87 -174 -129.5t-195 -42.5q-154 0 -255 94t-101 236q0 125 82 213q41 43 102 72t157.5 49.5t238.5 36.5l143 16v70q0 97 -59.5 146.5t-172.5 49.5q-102 0 -154 -42t-71 -140h-227q12 85 35 136t71 98q128 114 361 114q134 0 231.5 -43t149 -125.5
t51.5 -195.5v-586h131v-174zM805 410v147l-96 -14q-150 -22 -224 -47.5t-116 -67.5q-47 -47 -47 -104q0 -76 56.5 -131.5t133.5 -55.5q72 0 141 39t110.5 103t41.5 131zM936 1219h-225l-117 149l-109 -149h-227l211 294h258z" />
    <glyph glyph-name="adieresis" unicode="&#xe4;" horiz-adv-x="1194" 
d="M1151 0h-344v147q-97 -87 -174 -129.5t-195 -42.5q-154 0 -255 94t-101 236q0 125 82 213q41 43 102 72t157.5 49.5t238.5 36.5l143 16v70q0 97 -59.5 146.5t-172.5 49.5q-102 0 -154 -42t-71 -140h-227q12 85 35 136t71 98q128 114 361 114q134 0 231.5 -43t149 -125.5
t51.5 -195.5v-586h131v-174zM805 410v147l-96 -14q-150 -22 -224 -47.5t-116 -67.5q-47 -47 -47 -104q0 -76 56.5 -131.5t133.5 -55.5q72 0 141 39t110.5 103t41.5 131zM932 1268h-242v245h242v-245zM502 1272h-242v241h242v-241z" />
    <glyph glyph-name="atilde" unicode="&#xe3;" horiz-adv-x="1194" 
d="M1151 0h-344v147q-97 -87 -174 -129.5t-195 -42.5q-154 0 -255 94t-101 236q0 125 82 213q41 43 102 72t157.5 49.5t238.5 36.5l143 16v70q0 97 -59.5 146.5t-172.5 49.5q-102 0 -154 -42t-71 -140h-227q12 85 35 136t71 98q128 114 361 114q134 0 231.5 -43t149 -125.5
t51.5 -195.5v-586h131v-174zM805 410v147l-96 -14q-150 -22 -224 -47.5t-116 -67.5q-47 -47 -47 -104q0 -76 56.5 -131.5t133.5 -55.5q72 0 141 39t110.5 103t41.5 131zM942 1481q-3 -131 -47 -190.5t-139 -59.5q-30 0 -54.5 5.5t-74.5 25.5l-35 14q-94 39 -143 39
q-70 0 -70 -86h-127v22q0 119 53 179q50 51 127 51q70 0 137 -33l29 -14q48 -24 76.5 -31.5t56.5 -7.5q37 0 56 20t26 66h129z" />
    <glyph glyph-name="aring" unicode="&#xe5;" horiz-adv-x="1194" 
d="M1151 0h-344v147q-97 -87 -174 -129.5t-195 -42.5q-154 0 -255 94t-101 236q0 125 82 213q41 43 102 72t157.5 49.5t238.5 36.5l143 16v70q0 97 -59.5 146.5t-172.5 49.5q-102 0 -154 -42t-71 -140h-227q12 85 35 136t71 98q128 114 361 114q134 0 231.5 -43t149 -125.5
t51.5 -195.5v-586h131v-174zM805 410v147l-96 -14q-150 -22 -224 -47.5t-116 -67.5q-47 -47 -47 -104q0 -76 56.5 -131.5t133.5 -55.5q72 0 141 39t110.5 103t41.5 131zM793 1364q-2 -58 -27.5 -102t-69 -69.5t-98.5 -25.5q-83 0 -140 57t-57 140t57 140t140 57
q48 0 93.5 -24.5t73.5 -70t28 -102.5zM686 1364q0 37 -25 63.5t-63 26.5t-64 -26t-26 -64t26 -64t64 -26q37 0 62.5 26.5t25.5 63.5z" />
    <glyph glyph-name="ccedilla" unicode="&#xe7;" horiz-adv-x="1153" 
d="M1090 387q-25 -93 -48.5 -144.5t-60.5 -97.5q-118 -145 -303 -163q86 -13 136 -63t50 -122q0 -100 -95 -158.5t-255 -58.5q-39 0 -96.5 4t-98.5 13v116l83 -6t102 -4q80 0 125 25t45 69q0 40 -34.5 62t-94.5 22q-65 0 -129 -20l26 100q57 18 103 21q-102 12 -186 59
t-144 123t-93.5 179.5t-33.5 219.5q0 159 66 288t183.5 201t262.5 72q88 0 155.5 -33t137.5 -112v121h166v-393h-176q-32 120 -99 178q-65 59 -172 59q-88 0 -155.5 -47.5t-103.5 -137t-36 -204.5q0 -178 79.5 -286.5t209.5 -108.5q71 0 129.5 34.5t91.5 96.5q19 31 37 96
h226z" />
    <glyph glyph-name="eacute" unicode="&#xe9;" horiz-adv-x="1174" 
d="M1092 506h-791q4 -115 49 -194t115.5 -115.5t146.5 -36.5q86 0 141 43t85 135h235q-52 -137 -160.5 -250t-312.5 -113q-115 0 -211.5 42.5t-166 121.5t-107 185.5t-37.5 236.5q0 160 68.5 289.5t189.5 201.5t270 72q110 0 219.5 -51.5t188 -189.5t78.5 -377zM850 659
q-7 138 -69.5 209.5t-178.5 71.5q-79 0 -136 -35.5t-90.5 -85.5t-50 -95.5t-16.5 -64.5h541zM902 1513l-275 -299h-178l139 299h314z" />
    <glyph glyph-name="egrave" unicode="&#xe8;" horiz-adv-x="1174" 
d="M1092 506h-791q4 -115 49 -194t115.5 -115.5t146.5 -36.5q86 0 141 43t85 135h235q-52 -137 -160.5 -250t-312.5 -113q-115 0 -211.5 42.5t-166 121.5t-107 185.5t-37.5 236.5q0 160 68.5 289.5t189.5 201.5t270 72q110 0 219.5 -51.5t188 -189.5t78.5 -377zM850 659
q-7 138 -69.5 209.5t-178.5 71.5q-79 0 -136 -35.5t-90.5 -85.5t-50 -95.5t-16.5 -64.5h541zM726 1214h-178l-274 299h313z" />
    <glyph glyph-name="ecircumflex" unicode="&#xea;" horiz-adv-x="1174" 
d="M1092 506h-791q4 -115 49 -194t115.5 -115.5t146.5 -36.5q86 0 141 43t85 135h235q-52 -137 -160.5 -250t-312.5 -113q-115 0 -211.5 42.5t-166 121.5t-107 185.5t-37.5 236.5q0 160 68.5 289.5t189.5 201.5t270 72q110 0 219.5 -51.5t188 -189.5t78.5 -377zM850 659
q-7 138 -69.5 209.5t-178.5 71.5q-79 0 -136 -35.5t-90.5 -85.5t-50 -95.5t-16.5 -64.5h541zM926 1219h-225l-117 149l-109 -149h-227l211 294h258z" />
    <glyph glyph-name="edieresis" unicode="&#xeb;" horiz-adv-x="1174" 
d="M1092 506h-791q4 -115 49 -194t115.5 -115.5t146.5 -36.5q86 0 141 43t85 135h235q-52 -137 -160.5 -250t-312.5 -113q-115 0 -211.5 42.5t-166 121.5t-107 185.5t-37.5 236.5q0 160 68.5 289.5t189.5 201.5t270 72q110 0 219.5 -51.5t188 -189.5t78.5 -377zM850 659
q-7 138 -69.5 209.5t-178.5 71.5q-79 0 -136 -35.5t-90.5 -85.5t-50 -95.5t-16.5 -64.5h541zM922 1268h-242v245h242v-245zM492 1272h-242v241h242v-241z" />
    <glyph glyph-name="iacute" unicode="&#xed;" horiz-adv-x="618" 
d="M549 0h-469v174h131v754h-129v172h344v-926h123v-174zM594 1513l-275 -299h-178l139 299h314z" />
    <glyph glyph-name="igrave" unicode="&#xec;" horiz-adv-x="618" 
d="M549 0h-469v174h131v754h-129v172h344v-926h123v-174zM409 1214h-178l-274 299h313z" />
    <glyph glyph-name="icircumflex" unicode="&#xee;" horiz-adv-x="618" 
d="M549 0h-469v174h131v754h-129v172h344v-926h123v-174zM608 1219h-225l-117 149l-109 -149h-227l211 294h258z" />
    <glyph glyph-name="idieresis" unicode="&#xef;" horiz-adv-x="618" 
d="M549 0h-469v174h131v754h-129v172h344v-926h123v-174zM604 1268h-242v245h242v-245zM174 1272h-242v241h242v-241z" />
    <glyph glyph-name="ntilde" unicode="&#xf1;" 
d="M1233 0h-344v745q0 92 -48.5 148.5t-127.5 56.5q-69 0 -138 -44t-114 -119.5t-45 -155.5v-457h131v-174h-477v174h131v752h-131v174h348v-174q89 109 180 155q89 43 180 43q72 0 131.5 -23.5t102.5 -65t67.5 -99.5t24.5 -129v-633h129v-174zM985 1481q-3 -131 -47 -190.5
t-139 -59.5q-30 0 -54.5 5.5t-74.5 25.5l-35 14q-94 39 -143 39q-70 0 -70 -86h-127v22q0 119 53 179q50 51 127 51q70 0 137 -33l29 -14q48 -24 76.5 -31.5t56.5 -7.5q37 0 56 20t26 66h129z" />
    <glyph glyph-name="oacute" unicode="&#xf3;" horiz-adv-x="1217" 
d="M1126 555q0 -128 -38 -235.5t-107 -184t-166.5 -118.5t-212.5 -42q-112 0 -208 43t-164 121t-105 185t-37 235q0 162 65.5 291t184.5 201.5t266 72.5q117 0 212.5 -40.5t166 -117t107 -180.5t36.5 -231zM897 547q0 189 -75.5 293t-215.5 104q-88 0 -153.5 -49
t-100.5 -139.5t-35 -212.5q0 -176 79 -281.5t210 -105.5q87 0 153.5 47.5t102 135t35.5 208.5zM893 1513l-275 -299h-178l139 299h314z" />
    <glyph glyph-name="ograve" unicode="&#xf2;" horiz-adv-x="1217" 
d="M1126 555q0 -128 -38 -235.5t-107 -184t-166.5 -118.5t-212.5 -42q-112 0 -208 43t-164 121t-105 185t-37 235q0 162 65.5 291t184.5 201.5t266 72.5q117 0 212.5 -40.5t166 -117t107 -180.5t36.5 -231zM897 547q0 189 -75.5 293t-215.5 104q-88 0 -153.5 -49
t-100.5 -139.5t-35 -212.5q0 -176 79 -281.5t210 -105.5q87 0 153.5 47.5t102 135t35.5 208.5zM749 1214h-178l-274 299h313z" />
    <glyph glyph-name="ocircumflex" unicode="&#xf4;" horiz-adv-x="1217" 
d="M1126 555q0 -128 -38 -235.5t-107 -184t-166.5 -118.5t-212.5 -42q-112 0 -208 43t-164 121t-105 185t-37 235q0 162 65.5 291t184.5 201.5t266 72.5q117 0 212.5 -40.5t166 -117t107 -180.5t36.5 -231zM897 547q0 189 -75.5 293t-215.5 104q-88 0 -153.5 -49
t-100.5 -139.5t-35 -212.5q0 -176 79 -281.5t210 -105.5q87 0 153.5 47.5t102 135t35.5 208.5zM948 1219h-225l-117 149l-109 -149h-227l211 294h258z" />
    <glyph glyph-name="odieresis" unicode="&#xf6;" horiz-adv-x="1217" 
d="M1126 555q0 -128 -38 -235.5t-107 -184t-166.5 -118.5t-212.5 -42q-112 0 -208 43t-164 121t-105 185t-37 235q0 162 65.5 291t184.5 201.5t266 72.5q117 0 212.5 -40.5t166 -117t107 -180.5t36.5 -231zM897 547q0 189 -75.5 293t-215.5 104q-88 0 -153.5 -49
t-100.5 -139.5t-35 -212.5q0 -176 79 -281.5t210 -105.5q87 0 153.5 47.5t102 135t35.5 208.5zM944 1268h-242v245h242v-245zM514 1272h-242v241h242v-241z" />
    <glyph glyph-name="otilde" unicode="&#xf5;" horiz-adv-x="1217" 
d="M1126 555q0 -128 -38 -235.5t-107 -184t-166.5 -118.5t-212.5 -42q-112 0 -208 43t-164 121t-105 185t-37 235q0 162 65.5 291t184.5 201.5t266 72.5q117 0 212.5 -40.5t166 -117t107 -180.5t36.5 -231zM897 547q0 189 -75.5 293t-215.5 104q-88 0 -153.5 -49
t-100.5 -139.5t-35 -212.5q0 -176 79 -281.5t210 -105.5q87 0 153.5 47.5t102 135t35.5 208.5zM954 1481q-3 -131 -47 -190.5t-139 -59.5q-30 0 -54.5 5.5t-74.5 25.5l-35 14q-94 39 -143 39q-70 0 -70 -86h-127v22q0 119 53 179q50 51 127 51q70 0 137 -33l29 -14
q48 -24 76.5 -31.5t56.5 -7.5q37 0 56 20t26 66h129z" />
    <glyph glyph-name="uacute" unicode="&#xfa;" 
d="M1200 0h-342v172q-57 -67 -97.5 -99t-96.5 -59q-88 -39 -168 -39q-94 0 -167.5 42t-114 118t-40.5 176v615h-125v174h340v-748q0 -95 50 -150t136 -55q72 0 137 46t105.5 116t40.5 135v482h-127v174h342v-926h127v-174zM924 1513l-275 -299h-178l139 299h314z" />
    <glyph glyph-name="ugrave" unicode="&#xf9;" 
d="M1200 0h-342v172q-57 -67 -97.5 -99t-96.5 -59q-88 -39 -168 -39q-94 0 -167.5 42t-114 118t-40.5 176v615h-125v174h340v-748q0 -95 50 -150t136 -55q72 0 137 46t105.5 116t40.5 135v482h-127v174h342v-926h127v-174zM780 1214h-178l-274 299h313z" />
    <glyph glyph-name="ucircumflex" unicode="&#xfb;" 
d="M1200 0h-342v172q-57 -67 -97.5 -99t-96.5 -59q-88 -39 -168 -39q-94 0 -167.5 42t-114 118t-40.5 176v615h-125v174h340v-748q0 -95 50 -150t136 -55q72 0 137 46t105.5 116t40.5 135v482h-127v174h342v-926h127v-174zM918 1219h-225l-117 149l-109 -149h-227l211 294
h258z" />
    <glyph glyph-name="udieresis" unicode="&#xfc;" 
d="M1200 0h-342v172q-57 -67 -97.5 -99t-96.5 -59q-88 -39 -168 -39q-94 0 -167.5 42t-114 118t-40.5 176v615h-125v174h340v-748q0 -95 50 -150t136 -55q72 0 137 46t105.5 116t40.5 135v482h-127v174h342v-926h127v-174zM954 1268h-242v245h242v-245zM524 1272h-242v241
h242v-241z" />
    <glyph glyph-name="dagger" unicode="&#x2020;" horiz-adv-x="1067" 
d="M965 872l-334 21l-25 -1268h-149l-25 1268l-330 -19v209l334 -20v459h201v-459l328 20v-211z" />
    <glyph glyph-name="degree" unicode="&#xb0;" horiz-adv-x="819" 
d="M686 1214q0 -115 -80.5 -196.5t-195.5 -81.5q-56 0 -107 21.5t-90 60.5t-60.5 90t-21.5 106q0 74 37.5 138t102 101.5t139.5 37.5q73 0 137.5 -37t101.5 -101.5t37 -138.5zM578 1214q0 47 -22.5 84.5t-61 60.5t-84.5 23q-70 0 -120 -49t-50 -119q0 -69 49.5 -119.5
t120.5 -50.5q69 0 118.5 50.5t49.5 119.5z" />
    <glyph glyph-name="cent" unicode="&#xa2;" horiz-adv-x="1153" 
d="M1090 387q-25 -93 -48.5 -144.5t-60.5 -97.5q-68 -83 -162 -126.5t-209 -43.5q-39 0 -55 2l-66 -348h-102l70 369q-113 35 -196.5 115.5t-128 196t-44.5 253.5q0 159 66 288t183.5 201t262.5 72q40 0 68 -6l75 404h105l-82 -437q64 -34 127 -106v121h166v-393h-176
q-41 159 -150 211l-143 -758q167 0 237 131q19 31 37 96h226zM635 942q-6 2 -23 2q-88 0 -155.5 -47.5t-103.5 -137t-36 -204.5q0 -133 46.5 -230.5t128.5 -140.5z" />
    <glyph glyph-name="sterling" unicode="&#xa3;" horiz-adv-x="1217" 
d="M1130 975h-219q-5 94 -22 143.5t-58 87.5q-69 66 -172 66q-102 0 -164.5 -61.5t-62.5 -161.5q0 -42 12.5 -92.5t47.5 -153.5h233v-182h-199q4 -66 4 -76q0 -64 -9.5 -118t-34.5 -115.5t-62 -125.5h471v170h201v-356h-910v180q41 61 65 103.5t43 110.5t19 157q0 22 -2 70
h-180v182h148q-42 124 -57 184.5t-15 110.5q0 83 31.5 151t90 118.5t139 78t177.5 27.5q86 0 160 -21.5t133 -60.5t101.5 -97t64.5 -129q21 -68 26 -190z" />
    <glyph glyph-name="section" unicode="&#xa7;" horiz-adv-x="1067" 
d="M961 641q0 -66 -35.5 -137t-91.5 -119q-2 -2 -19 -15t-53 -35.5l-41 -25.5q52 -27 79.5 -47t49.5 -45q100 -111 100 -235q0 -102 -54.5 -186.5t-150.5 -132.5t-215 -48q-122 0 -218.5 54t-153.5 155q-29 50 -49 127h194q37 -95 87 -134.5t132 -39.5q100 0 163 51t63 133
q0 62 -38.5 105t-92.5 70t-134 57l-118 49.5t-137 76t-96 105.5t-38 143q0 69 39.5 142.5t104.5 119.5q28 22 94 58q-49 30 -72 47t-55 51q-76 92 -76 203q0 76 28.5 138t81.5 107t124 69t157 24q125 0 218 -52t141 -149q29 -56 43 -135h-195q-21 86 -73.5 125t-143.5 39
q-79 0 -131.5 -43.5t-52.5 -110.5q0 -56 57 -101.5t199 -99.5l53 -20q161 -61 243.5 -146.5t82.5 -191.5zM793 578q0 41 -23 73t-74.5 61.5t-163.5 78.5l-96 40q-90 -50 -133 -100.5t-43 -109.5q0 -44 25 -78t86 -70t157 -74l93 -37q172 91 172 216z" />
    <glyph glyph-name="bullet" unicode="&#x2022;" horiz-adv-x="717" 
d="M610 717q0 -68 -34 -126t-92 -92t-128 -34q-104 0 -178 74t-74 178q0 106 74 180t178 74q70 0 128 -34t92 -91.5t34 -128.5z" />
    <glyph glyph-name="paragraph" unicode="&#xb6;" horiz-adv-x="1102" 
d="M1102 1294h-144v-1700h-170v1700h-223v-1700h-164v1045q-107 11 -175.5 39t-123.5 86q-104 109 -104 289q0 123 56.5 218.5t164.5 147.5q53 27 104.5 37t145.5 10h633v-172z" />
    <glyph glyph-name="germandbls" unicode="&#xdf;" 
d="M1194 485q0 -138 -62.5 -253.5t-171.5 -180.5t-241 -65q-22 0 -76.5 5.5t-73.5 8.5v176q63 -8 103 -8q140 0 224.5 85.5t84.5 229.5q0 72 -24 126t-69.5 92.5t-107 57.5t-141.5 19h-23v168q89 7 138.5 25.5t85.5 56.5q55 58 55 150q0 55 -28 99t-77.5 68.5t-111.5 24.5
q-77 0 -138.5 -35.5t-94.5 -100.5t-33 -147v-1087h-340v174h131v930q0 103 32 184.5t93.5 138t151 85t202.5 28.5q126 0 219 -40.5t144 -117t51 -178.5q0 -97 -59 -182t-165 -121q105 -27 162 -72q160 -126 160 -344z" />
    <glyph glyph-name="registered" unicode="&#xae;" horiz-adv-x="1511" 
d="M1509 737q0 -154 -58 -292.5t-163.5 -243t-242 -162t-289.5 -57.5q-206 0 -380 101.5t-275 274.5t-101 379q0 205 101.5 378t275 274.5t379.5 101.5q153 0 291 -58t242 -162t162 -242.5t58 -291.5zM1384 737q0 129 -49 244t-135 201t-201 135t-243 49t-243.5 -49
t-202.5 -136t-136 -202t-49 -242q0 -172 85 -316.5t229.5 -229.5t316.5 -85t316 85t228 230t84 316zM1106 319h-160l-72 127q-57 99 -90 142.5t-67 59.5t-84 16h-78v-345h-131v811h281q160 0 219 -26q54 -23 90.5 -76t36.5 -110q0 -66 -27 -116.5t-79 -80.5t-126 -39
q51 -21 89 -62.5t100 -142.5zM911 899q0 68 -45.5 94.5t-160.5 26.5h-150v-244h160q104 0 150 29t46 94z" />
    <glyph glyph-name="copyright" unicode="&#xa9;" horiz-adv-x="1511" 
d="M1509 737q0 -152 -58 -290t-163 -243t-241.5 -163.5t-292.5 -58.5q-205 0 -378.5 101.5t-274.5 274.5t-101 379q0 205 101.5 378t274.5 274.5t378 101.5q154 0 293 -58.5t242.5 -162t161.5 -242t58 -291.5zM1384 737q0 129 -48.5 243t-135.5 201t-203 136t-243 49
t-242 -49t-202 -136t-136 -202t-49 -242q0 -172 85 -317t229 -229.5t315 -84.5q172 0 316.5 85t229 230t84.5 316zM1120 578q-14 -49 -29 -80.5t-40 -63.5q-107 -129 -293 -129q-124 0 -213.5 53t-137 153.5t-47.5 236.5q0 125 50 217.5t141 143t213 50.5q58 0 108.5 -12.5
t91 -35.5t74.5 -62q40 -48 66 -125l-119 -29q-34 80 -89 117t-144 37q-115 0 -185.5 -87.5t-70.5 -232.5q0 -144 69 -225.5t189 -81.5q90 0 153 50t90 142z" />
    <glyph glyph-name="trademark" unicode="&#x2122;" horiz-adv-x="2048" 
d="M1769 651h-124v684l-209 -684h-123l-219 695v-695h-125v815h200l205 -651l199 651h196v-815zM879 1346h-269v-695h-135v695h-264v120h668v-120z" />
    <glyph glyph-name="acute" unicode="&#xb4;" horiz-adv-x="682" 
d="M625 1513l-275 -299h-178l139 299h314z" />
    <glyph glyph-name="dieresis" unicode="&#xa8;" horiz-adv-x="682" 
d="M676 1268h-242v245h242v-245zM246 1272h-242v241h242v-241z" />
    <glyph glyph-name="notequal" unicode="&#x2260;" horiz-adv-x="1124" 
d="M1087 289h-602l-163 -289h-111l166 289h-340v96h393l158 279h-551v96h604l164 291h108l-163 -291h337v-96h-391l-155 -279h546v-96z" />
    <glyph glyph-name="AE" unicode="&#xc6;" horiz-adv-x="2068" 
d="M1974 0h-956v627h-410l-305 -627h-240v188h123l609 1256h1151v-434h-197v245h-504v-442h496v-186h-496v-439h531v269h198v-457zM1018 813v442h-109l-211 -442h320z" />
    <glyph glyph-name="Oslash" unicode="&#xd8;" horiz-adv-x="1516" 
d="M1430 1378l-144 -166q44 -61 76 -141.5t47.5 -168t15.5 -183.5q0 -114 -23 -218t-70 -192.5t-111 -154.5q-63 -65 -131.5 -104.5t-152 -59t-187.5 -19.5q-120 0 -229 39.5t-189 110.5l-127 -144l-101 70l142 164q-154 201 -154 504q0 165 43.5 304t129 241t209.5 157.5
t278 55.5q138 0 248.5 -40.5t195.5 -117.5l131 151zM1042 1137q-109 133 -284 133q-94 0 -170 -38t-128.5 -109t-80 -176t-27.5 -232q0 -179 62 -309zM1165 713q0 177 -53 301l-629 -719q102 -121 283 -121q92 0 166 37t125.5 107t79.5 169t28 226z" />
    <glyph glyph-name="infinity" unicode="&#x221e;" horiz-adv-x="1460" 
d="M1407 526q0 -186 -115 -307q-50 -53 -111.5 -83t-123.5 -30q-60 0 -112 25t-101.5 80t-98.5 139l-24 43q-44 -83 -90.5 -134.5t-103 -75t-130.5 -23.5q-100 0 -177.5 47t-122 132t-44.5 189q0 102 40.5 186.5t110.5 132.5t156 48q112 0 183 -68q54 -54 110 -159
q48 108 95 166q95 110 276 110q72 0 128 -19.5t110 -64.5q145 -124 145 -334zM1350 526q0 90 -38 169.5t-104 125t-141 45.5q-104 0 -172 -84q-29 -36 -54.5 -92t-78.5 -196l-12 -29q49 -101 93 -156.5t97.5 -81.5t120.5 -26q83 0 149 41.5t103 115.5t37 168zM625 590
q-38 80 -75 125t-84.5 67.5t-107.5 22.5q-74 0 -130 -35t-87.5 -97t-31.5 -143q0 -79 30.5 -147t83 -106.5t115.5 -38.5q60 0 115 36.5t84 92.5q39 77 77 190z" />
    <glyph glyph-name="plusminus" unicode="&#xb1;" horiz-adv-x="1368" 
d="M1235 754h-461v-459h-184v459h-459v184h459v461h184v-461h461v-184zM1235 -53h-1104v184h1104v-184z" />
    <glyph glyph-name="lessequal" unicode="&#x2264;" horiz-adv-x="1124" 
d="M1065 221l-1006 498v51l1006 502v-111l-842 -416l842 -417v-107zM1065 0h-1006v96h1006v-96z" />
    <glyph glyph-name="greaterequal" unicode="&#x2265;" horiz-adv-x="1124" 
d="M1065 723l-1006 -502v111l842 416l-842 417v107l1006 -498v-51zM1065 0h-1006v96h1006v-96z" />
    <glyph glyph-name="yen" unicode="&#xa5;" 
d="M1169 1255h-137l-180 -411h225v-154h-321v-158h321v-153h-321v-191h143v-188h-516v188h143v191h-313v153h313v158h-313v154h213l-180 411h-137v189h272l260 -610l256 610h272v-189z" />
    <glyph glyph-name="uni00B5" unicode="&#xb5;" horiz-adv-x="1139" 
d="M997 0h-161v127q-50 -83 -114.5 -117.5t-150.5 -34.5q-69 0 -135.5 31.5t-118.5 102.5v-515h-178v1469h178v-516q0 -147 15.5 -216t58.5 -118q68 -74 168 -74t162 56q60 50 79 120.5t19 227.5v520h178v-1063z" />
    <glyph glyph-name="partialdiff" unicode="&#x2202;" horiz-adv-x="1012" 
d="M995 920q0 -140 -28 -281t-81.5 -263.5t-127.5 -219.5q-143 -187 -355 -187q-154 0 -245.5 91.5t-91.5 244.5q0 157 76.5 296.5t203.5 222.5t270 83q106 0 189 -51q44 -27 72 -58t51 -81h4q10 147 10 186q0 117 -41.5 202t-120 130t-184.5 45q-100 0 -171.5 -37.5
t-129.5 -122.5h-45q35 74 61.5 116t63.5 79q49 51 117 79.5t137 28.5q47 0 94 -13.5t88 -39.5t70 -59q114 -130 114 -391zM911 629q-36 105 -111 165t-173 60q-81 0 -157.5 -49t-121.5 -127q-33 -57 -60 -132t-41 -146.5t-14 -135.5q0 -108 53.5 -172.5t143.5 -64.5
q72 0 152 49.5t147 136.5q70 93 112 188.5t70 227.5z" />
    <glyph glyph-name="summation" unicode="&#x2211;" horiz-adv-x="1460" 
d="M1419 212l-63 -416h-1313v37l670 831l-670 814v39h1278l27 -338h-39q-16 133 -76 194.5t-174 61.5h-740l562 -685l-629 -778h819q54 0 114.5 17t90.5 39q36 25 60.5 71t43.5 121z" />
    <glyph glyph-name="product" unicode="&#x220f;" horiz-adv-x="1686" 
d="M1640 -204h-598v37h35q87 0 125.5 37.5t38.5 118.5v1450h-797v-1450q0 -79 39.5 -117.5t122.5 -38.5h37v-37h-598v37h35q87 0 125.5 37.5t38.5 118.5v1335q0 83 -38.5 119.5t-125.5 36.5h-35v37h1595v-37h-34q-85 0 -124.5 -36.5t-39.5 -119.5v-1335q0 -81 39.5 -118.5
t124.5 -37.5h34v-37z" />
    <glyph glyph-name="uniF006" unicode="&#xf006;" horiz-adv-x="1124" 
d="M1049 258q-7 -61 -18.5 -104.5t-31.5 -79.5q-24 -48 -66.5 -76.5t-90.5 -28.5q-35 0 -69.5 16.5t-53.5 43.5q-32 44 -46 107.5t-14 168.5q0 62 7 158q3 27 5 52.5t9 98.5l5.5 48l6.5 55l6 53h-260l-4 -61q-17 -294 -39.5 -450t-58.5 -223t-94 -67q-34 0 -59 25t-25 59
q0 27 12 52t43 67q46 59 68.5 113t37.5 143q15 85 22.5 160.5t12.5 181.5h-45q-50 0 -74 -6.5t-51 -26.5q-46 -36 -90 -110h-39q52 160 116.5 224t174.5 64h703v-145h-242q-17 -109 -26 -222.5t-9 -215.5q0 -93 33 -142t92 -49q97 0 117 117h35z" />
    <glyph glyph-name="integral" unicode="&#x222b;" horiz-adv-x="561" 
d="M561 1755q0 -29 -12.5 -53t-34 -36.5t-47.5 -12.5q-36 0 -76 35q-20 20 -39 20q-41 0 -41 -63q0 -46 11 -146q18 -204 27 -371t9 -294l-2 -121l-14 -471q-6 -190 -49 -320q-22 -67 -68 -104t-106 -37q-54 0 -86.5 33.5t-32.5 87.5q0 44 25 71t65 27q42 0 70 -33
q13 -14 24 -22t25 -8q39 0 39 61q0 37 -10 119q-20 170 -29 395q-3 104 -6 229q-2 70 -2 154l16 553q6 191 66 317q19 40 63.5 69.5t87.5 29.5q31 0 61.5 -15t48 -41t17.5 -53z" />
    <glyph glyph-name="ordfeminine" unicode="&#xaa;" horiz-adv-x="768" 
d="M741 752h-221v92q-77 -65 -123 -87t-112 -22q-100 0 -165 60t-65 155q0 74 54 133q44 45 118 67.5t236 39.5l57 6v39q0 131 -145 131q-67 0 -101 -26.5t-49 -90.5h-143q14 79 49 128.5t95 72.5t151 23q130 0 205 -61t75 -169v-383h84v-108zM520 1024v84
q-127 -19 -191.5 -37.5t-91 -45t-26.5 -69.5q0 -47 36.5 -82.5t84.5 -35.5q74 0 131 56t57 130z" />
    <glyph glyph-name="ordmasculine" unicode="&#xba;" horiz-adv-x="788" 
d="M725 1106q0 -81 -24 -148.5t-68.5 -117t-107.5 -76.5t-134 -27q-95 0 -171 47t-117.5 133t-41.5 195q0 157 94 259t236 102q76 0 137 -26.5t105 -75t68 -115.5t24 -150zM578 1106q0 118 -49.5 185t-135.5 67t-135 -69.5t-49 -188.5q0 -112 49.5 -179t134.5 -67
q87 0 136 67t49 185z" />
    <glyph glyph-name="uni2126" unicode="&#x2126;" horiz-adv-x="1573" 
d="M1518 0h-568l23 279q97 39 158 102t89.5 154.5t28.5 218.5q0 259 -123 405q-64 76 -152 117t-192 41q-102 0 -187 -39.5t-147 -112.5t-95.5 -175t-33.5 -222q0 -133 38 -242.5t106 -171.5q31 -28 57 -42.5t76 -32.5l22 -279h-563v279h35q3 -61 31 -82q26 -20 55.5 -27.5
t83.5 -7.5h270v69q-137 40 -236.5 118.5t-150.5 190t-51 248.5q0 130 50.5 241t142.5 191t218.5 123t278.5 43q154 0 283.5 -43.5t221 -121.5t143 -189.5t51.5 -243.5q0 -137 -54.5 -253t-154.5 -195.5t-230 -108.5l-8 -69h275q88 0 125 24.5t45 92.5h39v-279z" />
    <glyph glyph-name="ae" unicode="&#xe6;" horiz-adv-x="1878" 
d="M1788 506h-780q3 -97 40.5 -177t105.5 -125.5t157 -45.5q87 0 143.5 44t87.5 138h227q-29 -84 -51 -123.5t-63 -83.5q-143 -158 -336 -158q-115 0 -214.5 41.5t-168.5 118.5q-34 44 -66 94l-28 -32q-102 -117 -192.5 -170.5t-188.5 -53.5q-166 0 -272.5 96.5
t-106.5 245.5q0 122 82 207q40 42 101.5 70.5t153.5 48.5t234 35l146 16v80q0 90 -60 139.5t-170 49.5q-105 0 -155 -40t-72 -139l-221 -2q11 87 33 137t71 95q62 56 151 84t199 28q130 0 225.5 -41t145.5 -143q49 58 94.5 97t107.5 63t150 24q122 0 222 -51t166 -145.5
t90 -225.5q8 -39 10 -82.5t2 -113.5zM1556 655q-9 92 -28.5 140.5t-59.5 85.5q-68 59 -163 59q-115 0 -196.5 -93.5t-88.5 -191.5h536zM799 418v137l-66 -8q-151 -18 -225 -41.5t-123 -56.5q-70 -51 -70 -123q0 -76 56.5 -131.5t136.5 -55.5q78 0 145 37t106.5 101t39.5 141
z" />
    <glyph glyph-name="oslash" unicode="&#xf8;" horiz-adv-x="1217" 
d="M1126 555q0 -128 -38 -235.5t-107 -184t-166.5 -118.5t-212.5 -42q-189 0 -323 115l-99 -115l-76 72l103 121q-40 52 -66 112.5t-39.5 132t-13.5 146.5q0 162 65.5 291t184.5 201.5t266 72.5q195 0 328 -110l92 108l78 -67l-98 -115q59 -72 90.5 -171t31.5 -214zM801 862
q-72 82 -195 82q-88 0 -153.5 -49t-100.5 -139.5t-35 -212.5q0 -118 37 -203zM897 547q0 138 -39 223l-446 -524q73 -90 194 -90q87 0 153.5 47.5t102 135t35.5 208.5z" />
    <glyph glyph-name="questiondown" unicode="&#xbf;" horiz-adv-x="1110" 
d="M659 956h-227v236h227v-236zM1008 119q-9 -111 -28.5 -174.5t-66.5 -128.5q-117 -168 -356 -168q-134 0 -237.5 55.5t-159.5 157t-56 233.5q0 111 50.5 197.5t146.5 136.5q51 26 145 53v320h199v-434q-97 -7 -153.5 -27t-100.5 -66q-76 -79 -76 -198q0 -109 67.5 -176.5
t172.5 -67.5q107 0 166.5 69t79.5 218h207z" />
    <glyph glyph-name="exclamdown" unicode="&#xa1;" horiz-adv-x="555" 
d="M395 940h-233v234h233v-234zM387 -350h-221l33 1141h159z" />
    <glyph glyph-name="logicalnot" unicode="&#xac;" horiz-adv-x="1366" 
d="M1235 340h-184v487h-920v185h1104v-672z" />
    <glyph glyph-name="radical" unicode="&#x221a;" horiz-adv-x="1124" 
d="M1124 1870l-311 -1948l-496 1022l-198 -92l-35 63l301 152l403 -823h5l258 1626h73z" />
    <glyph glyph-name="florin" unicode="&#x192;" horiz-adv-x="1139" 
d="M1090 1454l-35 -154q-60 16 -91.5 20.5t-68.5 4.5q-38 0 -60.5 -13.5t-37 -46.5t-27.5 -100l-20 -104h204l-24 -139h-205l-190 -1092q-24 -140 -84.5 -200t-178.5 -60q-83 0 -221 24l33 156q105 -22 156 -22q57 0 83.5 33t41.5 120l178 1041h-201l23 139h202l23 135
q16 93 39.5 153.5t84.5 102t169 41.5q46 0 93.5 -10t113.5 -29z" />
    <glyph glyph-name="approxequal" unicode="&#x2248;" horiz-adv-x="1124" 
d="M1073 874q-20 -152 -93.5 -236.5t-188.5 -84.5q-56 0 -123.5 26.5t-180.5 90.5q-140 78 -211 78q-72 0 -118.5 -49.5t-59.5 -137.5h-47q20 151 93 236.5t182 85.5q48 0 123 -25q56 -21 208 -102q118 -62 193 -62q41 0 68.5 13.5t54.5 46.5q39 47 49 120h51zM1073 487
q-20 -152 -93.5 -236.5t-188.5 -84.5q-56 0 -121 25t-183 90q-71 42 -121 60.5t-90 18.5q-72 0 -118.5 -49t-59.5 -137h-47q12 98 49 170.5t95 111t131 38.5q48 0 123 -25q52 -16 208 -100q118 -62 193 -62q41 0 68.5 13.5t54.5 46.5q39 47 49 120h51z" />
    <glyph glyph-name="uni2206" unicode="&#x2206;" horiz-adv-x="1253" 
d="M1227 0h-1200l628 1386zM991 82l-399 967l-440 -967h839z" />
    <glyph glyph-name="guillemotleft" unicode="&#xab;" horiz-adv-x="1174" 
d="M1102 0h-187l-337 545l335 545h187l-336 -543zM596 0h-186l-338 545l336 545h186l-336 -543z" />
    <glyph glyph-name="guillemotright" unicode="&#xbb;" horiz-adv-x="1174" 
d="M1102 545l-338 -545h-186l337 547l-335 543h186zM596 545l-338 -545h-186l338 547l-336 543h186z" />
    <glyph glyph-name="ellipsis" unicode="&#x2026;" horiz-adv-x="2048" 
d="M1821 0h-228v233h228v-233zM1139 0h-228v233h228v-233zM457 0h-228v233h228v-233z" />
    <glyph glyph-name="uni00A0" unicode="&#xa0;" horiz-adv-x="569" 
 />
    <glyph glyph-name="Agrave" unicode="&#xc0;" horiz-adv-x="1493" 
d="M1421 0h-288l-117 356h-541l-117 -356h-288v188h120l420 1256h269l419 -1256h123v-188zM954 541l-211 653l-208 -653h419zM886 1559h-178l-274 299h313z" />
    <glyph glyph-name="Atilde" unicode="&#xc3;" horiz-adv-x="1493" 
d="M1421 0h-288l-117 356h-541l-117 -356h-288v188h120l420 1256h269l419 -1256h123v-188zM954 541l-211 653l-208 -653h419zM1091 1825q-3 -131 -47 -190.5t-139 -59.5q-30 0 -54.5 5.5t-74.5 25.5l-35 14q-94 39 -143 39q-70 0 -70 -86h-127v22q0 119 53 179q50 51 127 51
q70 0 137 -33l29 -14q48 -24 76.5 -31.5t56.5 -7.5q37 0 56 20t26 66h129z" />
    <glyph glyph-name="Otilde" unicode="&#xd5;" horiz-adv-x="1516" 
d="M1425 719q0 -114 -23 -218t-70 -192.5t-111 -154.5q-63 -65 -131.5 -104.5t-152 -59t-187.5 -19.5q-146 0 -267.5 53.5t-209.5 153.5t-134.5 238t-46.5 299q0 165 43.5 304t129 241t209.5 157.5t278 55.5q211 0 364 -97.5t231 -268.5t78 -388zM1165 713q0 127 -28.5 232
t-81 176.5t-127.5 110t-170 38.5q-94 0 -170 -38t-128.5 -109t-80 -176t-27.5 -232q0 -168 49.5 -289t143.5 -186.5t221 -65.5q92 0 166 37t125.5 107t79.5 169t28 226zM1104 1825q-3 -131 -47 -190.5t-139 -59.5q-30 0 -54.5 5.5t-74.5 25.5l-35 14q-94 39 -143 39
q-70 0 -70 -86h-127v22q0 119 53 179q50 51 127 51q70 0 137 -33l29 -14q48 -24 76.5 -31.5t56.5 -7.5q37 0 56 20t26 66h129z" />
    <glyph glyph-name="OE" unicode="&#x152;" horiz-adv-x="2134" 
d="M2032 0h-1174q-174 0 -314.5 49t-239.5 142.5t-151.5 227t-52.5 296.5q0 153 47 282t138.5 225t218.5 148q177 74 465 74h1034v-436h-199v247h-506v-421h502v-185h-502v-461h535v273h199v-461zM1069 188v1067h-149q-151 0 -250 -30.5t-168 -98.5q-71 -70 -110.5 -174.5
t-39.5 -226.5q0 -311 159.5 -424t338.5 -113h219z" />
    <glyph glyph-name="oe" unicode="&#x153;" horiz-adv-x="1985" 
d="M1882 506h-778q6 -104 43 -183.5t103.5 -123t156.5 -43.5q87 0 137.5 41t89.5 139h228q-25 -73 -49 -117t-64 -88q-73 -79 -161 -117.5t-191 -38.5q-105 0 -212.5 45.5t-176.5 143.5q-51 -70 -119 -112t-142 -60.5t-143 -18.5q-111 0 -207.5 43.5t-167.5 124t-110 189
t-39 231.5q0 125 38 228.5t107 178t165 115.5t210 41q104 0 214.5 -44.5t193.5 -151.5q83 96 170 146t221 50q84 0 161.5 -28.5t136.5 -80t102.5 -127t62.5 -167.5q17 -83 20 -215zM1651 657q-13 143 -74.5 212t-175.5 69q-123 0 -197.5 -89t-91.5 -192h539zM893 551
q0 120 -35 208t-99.5 135.5t-150.5 47.5q-66 0 -120 -27t-93.5 -79t-60.5 -124t-21 -153q0 -92 19.5 -166.5t58.5 -126.5t94 -79t125 -27q87 0 151 46t98 135.5t34 209.5z" />
    <glyph glyph-name="endash" unicode="&#x2013;" horiz-adv-x="1024" 
d="M1042 455h-1060v129h1060v-129z" />
    <glyph glyph-name="emdash" unicode="&#x2014;" horiz-adv-x="2048" 
d="M2066 455h-2084v129h2084v-129z" />
    <glyph glyph-name="quotedblleft" unicode="&#x201c;" horiz-adv-x="938" 
d="M772 1069h-229v256q0 107 53 159t176 64v-90q-49 -5 -71.5 -17t-31.5 -42t-12 -94h115v-236zM389 1069h-229v256q0 107 53 159t176 64v-90q-49 -5 -71.5 -17t-31.5 -42t-12 -94h115v-236z" />
    <glyph glyph-name="quotedblright" unicode="&#x201d;" horiz-adv-x="938" 
d="M778 1270q0 -107 -54 -158.5t-175 -60.5v86q50 6 73 19t31.5 42.5t10.5 95.5h-115v236h229v-260zM395 1272q0 -108 -54 -160t-175 -61v86q52 8 74 20.5t29.5 41.5t9.5 95h-113v236h229v-258z" />
    <glyph glyph-name="quoteleft" unicode="&#x2018;" horiz-adv-x="555" 
d="M389 1069h-229v256q0 107 53 159t176 64v-90q-49 -5 -71.5 -17t-31.5 -42t-12 -94h115v-236z" />
    <glyph glyph-name="quoteright" unicode="&#x2019;" horiz-adv-x="555" 
d="M395 1272q0 -107 -53.5 -159.5t-175.5 -61.5v86q71 11 91.5 39t21.5 118h-113v236h229v-258z" />
    <glyph glyph-name="divide" unicode="&#xf7;" horiz-adv-x="1368" 
d="M793 1090q0 -30 -16 -56.5t-42 -41.5t-55 -15q-45 0 -79 34t-34 81q0 46 33 78t80 32q29 0 55 -15t42 -41.5t16 -55.5zM1235 586h-1104v178h1104v-178zM795 260q0 -47 -33 -80t-80 -33t-81 33t-34 80q0 45 34 79t81 34q32 0 56.5 -14.5t40.5 -41t16 -57.5z" />
    <glyph glyph-name="lozenge" unicode="&#x25ca;" horiz-adv-x="1012" 
d="M967 709l-418 -709h-111l-391 709l391 714h111zM854 709l-358 616l-340 -616l340 -615z" />
    <glyph glyph-name="ydieresis" unicode="&#xff;" horiz-adv-x="1174" 
d="M1126 926h-102l-379 -1143q-19 -59 -51 -94t-83 -50.5t-126 -15.5h-26q-49 0 -103 8l-27 4v181q99 -6 111 -6q49 0 77 9t44.5 33.5t32.5 79.5l14 52l-356 942h-109v174h424v-174h-111l248 -693l219 693h-112v174h415v-174zM922 1268h-242v245h242v-245zM492 1272h-242
v241h242v-241z" />
    <glyph glyph-name="Ydieresis" unicode="&#x178;" 
d="M1210 1255h-125l-329 -649v-418h143v-188h-516v188h143v414l-331 653h-127v189h284l289 -604l287 604h282v-189zM975 1613h-242v245h242v-245zM545 1617h-242v241h242v-241z" />
    <glyph glyph-name="fraction" unicode="&#x2215;" horiz-adv-x="170" 
d="M565 1544l-825 -1612h-133l825 1612h133z" />
    <glyph glyph-name="Euro" unicode="&#x20ac;" horiz-adv-x="1217" 
d="M1186 981h-160q-25 76 -62 140.5t-104.5 108.5t-169.5 44q-109 0 -183 -78t-106 -227h467l-26 -183h-461v-41q1 -18 1.5 -33.5t0.5 -41.5h440l-26 -183h-396q60 -313 283 -313q77 0 132 35t84.5 94.5t37.5 132.5h225q-39 -226 -154 -343.5t-325 -117.5q-200 0 -334.5 136
t-181.5 376h-135l26 183h88q0 20 -0.5 32t-1.5 27q1 15 1.5 27t0.5 30h-118l26 183h113q31 154 103 268.5t177.5 175t235.5 60.5q125 0 213.5 -69t134.5 -138v180h154v-465z" />
    <glyph glyph-name="guilsinglleft" unicode="&#x2039;" horiz-adv-x="682" 
d="M610 0h-186l-338 545l336 545h186l-336 -543z" />
    <glyph glyph-name="guilsinglright" unicode="&#x203a;" horiz-adv-x="682" 
d="M596 545l-338 -545h-186l338 547l-336 543h186z" />
    <glyph glyph-name="uniF001" unicode="&#xf001;" horiz-adv-x="1300" 
d="M1126 1268h-231v231h231v-231zM1251 0h-471v174h131v752h-473v-752h137v-174h-479v174h127v752h-176v174h176v235q0 110 65.5 158.5t213.5 48.5q13 0 46.5 -2.5t80.5 -5.5l33 -2v-166q-70 4 -107 4q-66 0 -91.5 -18t-25.5 -68v-184h688v-926h125v-174z" />
    <glyph glyph-name="uniF001" unicode="&#xfb01;" horiz-adv-x="1300" 
d="M1126 1268h-231v231h231v-231zM1251 0h-471v174h131v752h-473v-752h137v-174h-479v174h127v752h-176v174h176v235q0 110 65.5 158.5t213.5 48.5q13 0 46.5 -2.5t80.5 -5.5l33 -2v-166q-70 4 -107 4q-66 0 -91.5 -18t-25.5 -68v-184h688v-926h125v-174z" />
    <glyph glyph-name="uniF002" unicode="&#xf002;" 
d="M1227 0h-471v174h125v1180h-125v174h340v-1354h131v-174zM645 1364q-6 0 -52 2t-54 2q-69 0 -94 -19.5t-25 -72.5v-176h198v-174h-198v-752h137v-174h-479v174h127v752h-172v174h172v235q0 107 67 156t215 49q3 0 129 -8l29 -2v-166z" />
    <glyph glyph-name="uniF002" unicode="&#xfb02;" 
d="M1227 0h-471v174h125v1180h-125v174h340v-1354h131v-174zM645 1364q-6 0 -52 2t-54 2q-69 0 -94 -19.5t-25 -72.5v-176h198v-174h-198v-752h137v-174h-479v174h127v752h-172v174h172v235q0 107 67 156t215 49q3 0 129 -8l29 -2v-166z" />
    <glyph glyph-name="daggerdbl" unicode="&#x2021;" horiz-adv-x="1067" 
d="M965 63l-328 21v-459h-201v459l-334 -21v209l330 -18l10 332l-10 307l-330 -19v209l334 -20v459h201v-459l328 20v-211l-334 21l-10 -307l10 -332l334 20v-211z" />
    <glyph glyph-name="periodcentered" unicode="&#x2219;" horiz-adv-x="555" 
d="M395 606h-233v234h233v-234z" />
    <glyph glyph-name="quotesinglbase" unicode="&#x201a;" horiz-adv-x="555" 
d="M389 -23q0 -49 -17 -97.5t-66.5 -84t-141.5 -35.5h-8v86q79 11 96.5 42.5t17.5 111.5h-110v236h229v-259z" />
    <glyph glyph-name="quotedblbase" unicode="&#x201e;" horiz-adv-x="938" 
d="M772 -14q0 -113 -52 -167t-177 -67v88q48 9 72 23.5t32 43.5t10 93h-114v236h229v-250zM389 -14q0 -78 -22 -126.5t-71 -73t-132 -30.5v86q51 8 72.5 21t28.5 42.5t9 94.5h-114v236h229v-250z" />
    <glyph glyph-name="perthousand" unicode="&#x2030;" horiz-adv-x="2347" 
d="M2290 334q0 -121 -40.5 -210.5t-115 -138t-174.5 -48.5q-101 0 -175.5 47.5t-114.5 137t-40 212.5q0 120 40.5 208.5t115.5 137.5t174 49q100 0 174.5 -49t115 -137.5t40.5 -208.5zM2130 334q0 133 -42.5 199.5t-127.5 66.5q-170 0 -170 -266q0 -268 170 -268
q82 0 126 69t44 199zM1540 334q0 -121 -40.5 -210.5t-115 -138t-174.5 -48.5q-101 0 -175 47.5t-114 137t-40 212.5q0 119 40.5 207.5t115.5 138t173 49.5q100 0 174.5 -49t115 -137.5t40.5 -208.5zM1380 334q0 133 -42.5 199.5t-127.5 66.5q-170 0 -170 -266
q0 -268 170 -268q82 0 126 69t44 199zM717 1149q0 -121 -40.5 -210t-115 -137t-174.5 -48q-99 0 -174.5 48t-115.5 137t-40 210q0 120 40.5 209t115.5 137.5t174 48.5q100 0 174.5 -48.5t115 -137.5t40.5 -209zM557 1149q0 133 -42.5 199.5t-127.5 66.5q-170 0 -170 -266
t170 -266q82 0 126 69.5t44 196.5zM1270 1542l-826 -1605h-135l824 1605h137z" />
    <glyph glyph-name="Acircumflex" unicode="&#xc2;" horiz-adv-x="1493" 
d="M1421 0h-288l-117 356h-541l-117 -356h-288v188h120l420 1256h269l419 -1256h123v-188zM954 541l-211 653l-208 -653h419zM1085 1563h-225l-117 149l-109 -149h-227l211 294h258z" />
    <glyph glyph-name="Ecircumflex" unicode="&#xca;" 
d="M1178 0h-1100v188h141v1067h-141v189h1071v-436h-197v247h-501v-417h495v-187h-495v-463h530v273h197v-461zM979 1563h-225l-117 149l-109 -149h-227l211 294h258z" />
    <glyph glyph-name="Aacute" unicode="&#xc1;" horiz-adv-x="1493" 
d="M1421 0h-288l-117 356h-541l-117 -356h-288v188h120l420 1256h269l419 -1256h123v-188zM954 541l-211 653l-208 -653h419zM1051 1858l-275 -299h-178l139 299h314z" />
    <glyph glyph-name="Edieresis" unicode="&#xcb;" 
d="M1178 0h-1100v188h141v1067h-141v189h1071v-436h-197v247h-501v-417h495v-187h-495v-463h530v273h197v-461zM975 1613h-242v245h242v-245zM545 1617h-242v241h242v-241z" />
    <glyph glyph-name="Egrave" unicode="&#xc8;" 
d="M1178 0h-1100v188h141v1067h-141v189h1071v-436h-197v247h-501v-417h495v-187h-495v-463h530v273h197v-461zM780 1559h-178l-274 299h313z" />
    <glyph glyph-name="Iacute" unicode="&#xcd;" horiz-adv-x="662" 
d="M592 1255h-146v-1067h142v-188h-518v188h145v1067h-141v189h518v-189zM656 1858l-275 -299h-178l139 299h314z" />
    <glyph glyph-name="Icircumflex" unicode="&#xce;" horiz-adv-x="662" 
d="M592 1255h-146v-1067h142v-188h-518v188h145v1067h-141v189h518v-189zM670 1563h-225l-117 149l-109 -149h-227l211 294h258z" />
    <glyph glyph-name="Idieresis" unicode="&#xcf;" horiz-adv-x="662" 
d="M592 1255h-146v-1067h142v-188h-518v188h145v1067h-141v189h518v-189zM666 1613h-242v245h242v-245zM236 1617h-242v241h242v-241z" />
    <glyph glyph-name="Igrave" unicode="&#xcc;" horiz-adv-x="662" 
d="M592 1255h-146v-1067h142v-188h-518v188h145v1067h-141v189h518v-189zM429 1559h-178l-274 299h313z" />
    <glyph glyph-name="Oacute" unicode="&#xd3;" horiz-adv-x="1516" 
d="M1425 719q0 -114 -23 -218t-70 -192.5t-111 -154.5q-63 -65 -131.5 -104.5t-152 -59t-187.5 -19.5q-146 0 -267.5 53.5t-209.5 153.5t-134.5 238t-46.5 299q0 165 43.5 304t129 241t209.5 157.5t278 55.5q211 0 364 -97.5t231 -268.5t78 -388zM1165 713q0 127 -28.5 232
t-81 176.5t-127.5 110t-170 38.5q-94 0 -170 -38t-128.5 -109t-80 -176t-27.5 -232q0 -168 49.5 -289t143.5 -186.5t221 -65.5q92 0 166 37t125.5 107t79.5 169t28 226zM1043 1858l-275 -299h-178l139 299h314z" />
    <glyph glyph-name="Ocircumflex" unicode="&#xd4;" horiz-adv-x="1516" 
d="M1425 719q0 -114 -23 -218t-70 -192.5t-111 -154.5q-63 -65 -131.5 -104.5t-152 -59t-187.5 -19.5q-146 0 -267.5 53.5t-209.5 153.5t-134.5 238t-46.5 299q0 165 43.5 304t129 241t209.5 157.5t278 55.5q211 0 364 -97.5t231 -268.5t78 -388zM1165 713q0 127 -28.5 232
t-81 176.5t-127.5 110t-170 38.5q-94 0 -170 -38t-128.5 -109t-80 -176t-27.5 -232q0 -168 49.5 -289t143.5 -186.5t221 -65.5q92 0 166 37t125.5 107t79.5 169t28 226zM1098 1563h-225l-117 149l-109 -149h-227l211 294h258z" />
    <glyph glyph-name="Ograve" unicode="&#xd2;" horiz-adv-x="1516" 
d="M1425 719q0 -114 -23 -218t-70 -192.5t-111 -154.5q-63 -65 -131.5 -104.5t-152 -59t-187.5 -19.5q-146 0 -267.5 53.5t-209.5 153.5t-134.5 238t-46.5 299q0 165 43.5 304t129 241t209.5 157.5t278 55.5q211 0 364 -97.5t231 -268.5t78 -388zM1165 713q0 127 -28.5 232
t-81 176.5t-127.5 110t-170 38.5q-94 0 -170 -38t-128.5 -109t-80 -176t-27.5 -232q0 -168 49.5 -289t143.5 -186.5t221 -65.5q92 0 166 37t125.5 107t79.5 169t28 226zM898 1559h-178l-274 299h313z" />
    <glyph glyph-name="Uacute" unicode="&#xda;" horiz-adv-x="1556" 
d="M1487 1255h-144v-729q0 -127 -33.5 -220.5t-109.5 -172.5q-82 -82 -183.5 -122t-232.5 -40q-169 0 -299 67.5t-202 191.5t-72 286v739h-141v189h514v-189h-146v-714q0 -176 86.5 -270.5t249.5 -94.5q82 0 146 22.5t107.5 66.5t66 111t22.5 154v725h-143v189h514v-189z
M1063 1858l-275 -299h-178l139 299h314z" />
    <glyph glyph-name="Ucircumflex" unicode="&#xdb;" horiz-adv-x="1556" 
d="M1487 1255h-144v-729q0 -127 -33.5 -220.5t-109.5 -172.5q-82 -82 -183.5 -122t-232.5 -40q-169 0 -299 67.5t-202 191.5t-72 286v739h-141v189h514v-189h-146v-714q0 -176 86.5 -270.5t249.5 -94.5q82 0 146 22.5t107.5 66.5t66 111t22.5 154v725h-143v189h514v-189z
M1118 1563h-225l-117 149l-109 -149h-227l211 294h258z" />
    <glyph glyph-name="Ugrave" unicode="&#xd9;" horiz-adv-x="1556" 
d="M1487 1255h-144v-729q0 -127 -33.5 -220.5t-109.5 -172.5q-82 -82 -183.5 -122t-232.5 -40q-169 0 -299 67.5t-202 191.5t-72 286v739h-141v189h514v-189h-146v-714q0 -176 86.5 -270.5t249.5 -94.5q82 0 146 22.5t107.5 66.5t66 111t22.5 154v725h-143v189h514v-189z
M919 1559h-178l-274 299h313z" />
    <glyph glyph-name="dotlessi" unicode="&#x131;" horiz-adv-x="618" 
d="M549 0h-469v174h131v754h-129v172h344v-926h123v-174z" />
    <glyph glyph-name="circumflex" unicode="&#x2c6;" horiz-adv-x="682" 
d="M680 1219h-225l-117 149l-109 -149h-227l211 294h258z" />
    <glyph glyph-name="tilde" unicode="&#x2dc;" horiz-adv-x="682" 
d="M686 1481q-3 -131 -47 -190.5t-139 -59.5q-30 0 -54.5 5.5t-74.5 25.5l-35 14q-94 39 -143 39q-70 0 -70 -86h-127v22q0 119 53 179q50 51 127 51q70 0 137 -33l29 -14q48 -24 76.5 -31.5t56.5 -7.5q37 0 56 20t26 66h129z" />
    <glyph glyph-name="macron" unicode="&#x2c9;" horiz-adv-x="682" 
d="M664 1257h-646v187h646v-187z" />
    <glyph glyph-name="breve" unicode="&#x2d8;" horiz-adv-x="682" 
d="M653 1513q-36 -290 -311 -290t-311 290h137q9 -76 51 -108q41 -35 123 -35t123.5 33.5t50.5 109.5h137z" />
    <glyph glyph-name="dotaccent" unicode="&#x2d9;" horiz-adv-x="682" 
d="M479 1247h-276v266h276v-266z" />
    <glyph glyph-name="ring" unicode="&#x2da;" horiz-adv-x="682" 
d="M537 1364q-2 -58 -27.5 -102t-69 -69.5t-98.5 -25.5q-83 0 -140 57t-57 140t57 140t140 57q48 0 93.5 -24.5t73.5 -70t28 -102.5zM430 1364q0 37 -25 63.5t-63 26.5t-64 -26t-26 -64t26 -64t64 -26q37 0 62.5 26.5t25.5 63.5z" />
    <glyph glyph-name="cedilla" unicode="&#xb8;" horiz-adv-x="682" 
d="M567 -203q0 -100 -95 -158.5t-255 -58.5q-124 0 -194 17v116q31 -2 84.5 -6t99.5 -4q80 0 125 25t45 69q0 40 -34.5 62t-94.5 22q-65 0 -129 -20l26 100q84 27 168 27q77 0 134.5 -24t88.5 -67t31 -100z" />
    <glyph glyph-name="hungarumlaut" unicode="&#x2dd;" horiz-adv-x="682" 
d="M885 1516l-248 -297h-178l139 297h287zM514 1516l-256 -297h-176l139 297h293z" />
    <glyph glyph-name="ogonek" unicode="&#x2db;" horiz-adv-x="682" 
d="M590 -389q-104 -43 -195 -43q-114 0 -182 63t-68 172q0 81 37 222h150q-21 -57 -21 -144q0 -157 142 -157q61 0 137 22v-135z" />
    <glyph glyph-name="caron" unicode="&#x2c7;" horiz-adv-x="682" 
d="M680 1513l-209 -294h-258l-211 294h227l109 -149l117 149h225z" />
    <glyph glyph-name="Lslash" unicode="&#x141;" horiz-adv-x="1194" 
d="M1110 0h-1044v188h145v381l-148 -123v211l148 125v473h-143v189h516v-189h-144v-333l301 254v-213l-301 -252v-523h473v271h197v-459z" />
    <glyph glyph-name="lslash" unicode="&#x142;" horiz-adv-x="598" 
d="M559 0h-469v174h123v428l-131 -110v184l131 110v566h-125v174h340v-580l121 103v-185l-121 -102v-588h131v-174z" />
    <glyph glyph-name="Scaron" unicode="&#x160;" horiz-adv-x="1260" 
d="M1180 426q0 -128 -60.5 -232.5t-168.5 -163.5t-240 -59q-106 0 -186 33t-138 83.5t-127 125.5v-213h-184v461h182q47 -80 91 -136t124 -101.5t191 -45.5q88 0 153 29t100 82t35 125q0 90 -54 138.5t-122.5 65t-175.5 27.5q-174 17 -254 47q-108 43 -153 92
q-111 117 -111 277q0 84 34.5 161t99 133.5t149.5 87t184 30.5q123 0 208 -47.5t169 -125.5v144h182v-414h-180q-37 82 -80 127q-118 121 -275 121q-76 0 -141 -26.5t-102 -73t-37 -103.5q0 -46 26.5 -83t73.5 -60q46 -20 97 -31t135 -20q159 -18 264 -54
q155 -52 223 -168.5t68 -232.5zM969 1857l-209 -294h-258l-211 294h227l109 -149l117 149h225z" />
    <glyph glyph-name="scaron" unicode="&#x161;" horiz-adv-x="1044" 
d="M963 322q0 -75 -26.5 -139t-76 -111.5t-114 -72t-142.5 -24.5q-155 0 -264 93q-37 33 -88 104v-172h-168v373h170q27 -71 63 -111q50 -56 116.5 -86.5t137.5 -30.5q84 0 144.5 50.5t60.5 119.5q0 54 -26 84.5t-98.5 51t-205.5 36.5q-115 15 -198 58t-124.5 110.5
t-41.5 153.5q0 89 45 161t125 113t180 41q99 0 168.5 -34t155.5 -123v133h168v-334h-168q-27 74 -56 104q-41 48 -100 74.5t-127 26.5q-86 0 -144.5 -43t-58.5 -107q0 -59 51.5 -88t190.5 -49q83 -10 149.5 -24t133 -47t106.5 -89q28 -37 45 -92t17 -110zM862 1513
l-209 -294h-258l-211 294h227l109 -149l117 149h225z" />
    <glyph glyph-name="Zcaron" unicode="&#x17d;" horiz-adv-x="1194" 
d="M1118 0h-1044v197l762 1058h-502v-213h-197v402h967v-187l-768 -1069h586v213h196v-401zM936 1857l-209 -294h-258l-211 294h227l109 -149l117 149h225z" />
    <glyph glyph-name="zcaron" unicode="&#x17e;" horiz-adv-x="961" 
d="M901 0h-842v168l584 758h-360v-172h-168v346h776v-166l-584 -760h426v176h168v-350zM819 1513l-209 -294h-258l-211 294h227l109 -149l117 149h225z" />
    <glyph glyph-name="brokenbar" unicode="&#xa6;" horiz-adv-x="1159" 
d="M672 666h-187v716h187v-716zM672 -358h-187v716h187v-716z" />
    <glyph glyph-name="Eth" unicode="&#xd0;" horiz-adv-x="1493" 
d="M1389 721q0 -166 -48.5 -301t-141 -228.5t-224 -142.5t-295.5 -49h-604v188h141v465h-141v154h141v448h-145v189h665q102 0 211 -35.5t211.5 -119.5t166 -225t63.5 -343zM1135 731q0 143 -31 240t-98 164q-122 120 -316 120h-246v-448h381v-154h-381v-465h203
q162 0 262.5 50t149.5 130.5t62.5 168.5t13.5 194z" />
    <glyph glyph-name="eth" unicode="&#xf0;" horiz-adv-x="1217" 
d="M1126 553q0 -170 -65 -301.5t-185.5 -204t-275.5 -72.5q-112 0 -206 41.5t-164.5 119.5t-108 182.5t-37.5 230.5q0 120 33.5 224t93.5 177t144 112.5t184 39.5q109 0 221 -76q-26 60 -74.5 119.5t-114.5 118.5l-235 -105l-39 82l201 90q-58 42 -136 92l84 129
q117 -52 240 -135l213 96l37 -90l-168 -73q143 -124 223 -260t107.5 -267.5t27.5 -269.5zM897 551q0 84 -21 151.5t-59 116t-92.5 75t-120.5 26.5q-89 0 -154.5 -46t-101 -131.5t-35.5 -201.5q0 -172 78.5 -279.5t204.5 -107.5q94 0 161.5 47t103.5 135.5t36 214.5z" />
    <glyph glyph-name="Yacute" unicode="&#xdd;" 
d="M1210 1255h-125l-329 -649v-418h143v-188h-516v188h143v414l-331 653h-127v189h284l289 -604l287 604h282v-189zM924 1858l-275 -299h-178l139 299h314z" />
    <glyph glyph-name="yacute" unicode="&#xfd;" horiz-adv-x="1174" 
d="M1126 926h-102l-379 -1143q-19 -59 -51 -94t-83 -50.5t-126 -15.5h-26q-49 0 -103 8l-27 4v181q99 -6 111 -6q49 0 77 9t44.5 33.5t32.5 79.5l14 52l-356 942h-109v174h424v-174h-111l248 -693l219 693h-112v174h415v-174zM871 1513l-275 -299h-178l139 299h314z" />
    <glyph glyph-name="Thorn" unicode="&#xde;" horiz-adv-x="1260" 
d="M1186 731q0 -101 -33.5 -181t-99.5 -139.5t-158 -90.5t-203 -31h-243v-101h172v-188h-545v188h143v1067h-143v189h561v-189h-188v-86h233q116 0 209 -30t159 -88t101 -138.5t35 -181.5zM934 727q0 123 -91.5 191.5t-256.5 68.5h-137v-514h163q151 0 236.5 67.5
t85.5 186.5z" />
    <glyph glyph-name="thorn" unicode="&#xfe;" 
d="M1198 545q0 -124 -32.5 -228t-93 -182t-140.5 -119t-176 -41q-73 0 -138.5 22.5t-117.5 65.5q-33 25 -86 93v-334h131v-174h-477v174h131v1532h-123v172h338v-584q64 89 146.5 135.5t199.5 46.5q96 0 176.5 -41.5t139 -119t90.5 -184.5t32 -234zM963 553q0 120 -31.5 208
t-90.5 135.5t-136 47.5q-132 0 -213.5 -108.5t-81.5 -282.5q0 -178 79.5 -287.5t206.5 -109.5q82 0 142.5 47t92.5 136t32 214z" />
    <glyph glyph-name="minus" unicode="&#x2212;" horiz-adv-x="1366" 
d="M1235 580h-1104v184h1104v-184z" />
    <glyph glyph-name="multiply" unicode="&#xd7;" horiz-adv-x="1366" 
d="M1200 1057l-385 -387l383 -383l-131 -129l-383 381l-383 -381l-131 129l385 383l-387 387l129 129l387 -387l387 387z" />
    <glyph glyph-name="onesuperior" unicode="&#xb9;" horiz-adv-x="788" 
d="M578 768h-332v119h94v479l-131 -111v150l143 121h127v-639h99v-119z" />
    <glyph glyph-name="twosuperior" unicode="&#xb2;" horiz-adv-x="788" 
d="M688 768h-602v123l281 229q77 63 110 108.5t33 86.5q0 44 -32.5 70t-86.5 26q-63 0 -96 -27t-51 -92h-158q8 68 29.5 116t55.5 77t86.5 44t127.5 15q80 0 145.5 -27t100.5 -77t35 -115q0 -67 -37.5 -124.5t-126.5 -127.5l-236 -186h309v84h113v-203z" />
    <glyph glyph-name="threesuperior" unicode="&#xb3;" horiz-adv-x="788" 
d="M707 1006q0 -115 -88 -185.5t-230 -70.5q-106 0 -179 43.5t-108 128.5q-9 27 -22 79h153q21 -65 58.5 -92.5t103.5 -27.5q45 0 79.5 17t53.5 48t19 68q0 57 -36.5 91t-98.5 34q-17 0 -52 -6l-61 88l223 188h-309v-88h-113v205h596v-119l-213 -180q117 -14 170.5 -66.5
t53.5 -154.5z" />
    <glyph glyph-name="onehalf" unicode="&#xbd;" horiz-adv-x="1749" 
d="M1634 -51h-602v123l281 229q77 63 110 107.5t33 87.5q0 44 -32.5 70t-86.5 26q-63 0 -96 -27t-51 -92h-158q9 70 29.5 116.5t56 76.5t87.5 44.5t126 14.5q80 0 145.5 -27t100.5 -77t35 -115q0 -67 -37.5 -124.5t-126.5 -127.5l-236 -186h310v84h112v-203zM1335 1546
l-825 -1614h-133l823 1614h135zM573 768h-331v119h94v479l-131 -111v150l143 121h127v-639h98v-119z" />
    <glyph glyph-name="onequarter" unicode="&#xbc;" horiz-adv-x="1749" 
d="M1673 174h-166v-106h82v-119h-303v119h82v106h-375v117l373 418h160l-373 -420h215v100l139 141v-241h166v-115zM1360 1546l-821 -1614h-136l824 1614h133zM563 768h-332v119h95v479l-131 -111v150l143 121h127v-639h98v-119z" />
    <glyph glyph-name="threequarters" unicode="&#xbe;" horiz-adv-x="1749" 
d="M1700 172h-166v-106h82v-117h-303v117h82v106h-375v117l371 418h161l-372 -420h215v100l139 141v-241h166v-115zM1386 1544l-823 -1612h-135l823 1612h135zM717 1006q0 -115 -88 -185.5t-230 -70.5q-107 0 -180 44t-108 128q-14 35 -23 79h154q20 -65 57.5 -92.5
t103.5 -27.5q68 0 111 37.5t43 95.5q0 57 -37 91t-100 34q-16 0 -49 -6l-64 88l225 188h-311v-88h-112v205h598v-119l-213 -180q116 -13 169.5 -66t53.5 -155z" />
    <glyph glyph-name="uni00AD" unicode="&#xad;" horiz-adv-x="725" 
d="M606 487h-489v181h489v-181z" />
    <glyph glyph-name="uni00AF" unicode="&#xaf;" horiz-adv-x="1024" 
d="M1024 1598h-1024v102h1024v-102z" />
    <glyph glyph-name="uni00B7" unicode="&#xb7;" horiz-adv-x="555" 
d="M395 606h-233v234h233v-234z" />
    <glyph glyph-name="uni2044" unicode="&#x2044;" horiz-adv-x="170" 
d="M565 1544l-825 -1612h-133l825 1612h133z" />
    <glyph glyph-name="currency" unicode="&#xa4;" horiz-adv-x="1366" 
d="M1194 283l-121 -123l-121 121q-124 -86 -270 -86q-78 0 -148 25t-118 61l-121 -121l-123 123l121 120q-80 121 -80 269q0 70 23 141t61 121l-125 127l121 123l127 -127q122 82 260 82q72 0 132.5 -16.5t133.5 -63.5l127 125l121 -123l-123 -125q36 -48 59 -120.5
t23 -147.5q0 -148 -80 -265zM971 666q0 78 -38.5 144.5t-104 105t-144.5 38.5t-145 -39t-105 -105t-39 -144t39 -143.5t104.5 -104.5t143.5 -39q79 0 145 39t105 104.5t39 143.5z" />
    </font>
</defs>
</svg>
